<svg width="18" height="18" viewBox="0 0 18 18" fill="none" xmlns="http://www.w3.org/2000/svg">
<path d="M15.8101 6.435V11.565C15.8101 12.405 15.3601 13.185 14.6326 13.6125L10.1776 16.185C9.45012 16.605 8.55012 16.605 7.81512 16.185L3.36012 13.6125C3.00145 13.4045 2.70382 13.1059 2.49713 12.7465C2.29044 12.3871 2.18197 11.9796 2.18262 11.565V6.435C2.18262 5.595 2.63262 4.815 3.36012 4.3875L7.81512 1.815C8.54262 1.395 9.44262 1.395 10.1776 1.815L14.6326 4.3875C15.3601 4.815 15.8101 5.5875 15.8101 6.435Z" stroke="#777777" stroke-width="1.5" stroke-linecap="round" stroke-linejoin="round"/>
<path d="M12 12.495C12 11.145 10.6575 10.05 9 10.05C7.3425 10.05 6 11.145 6 12.495M9 8.25C9.46347 8.25 9.90795 8.06589 10.2357 7.73817C10.5634 7.41045 10.7475 6.96597 10.7475 6.5025C10.7475 6.03904 10.5634 5.59456 10.2357 5.26684C9.90795 4.93912 9.46347 4.755 9 4.755C8.53653 4.755 8.09205 4.93912 7.76433 5.26684C7.43661 5.59456 7.2525 6.03904 7.2525 6.5025C7.2525 6.96597 7.43661 7.41045 7.76433 7.73817C8.09205 8.06589 8.53653 8.25 9 8.25Z" stroke="#777777" stroke-width="1.5" stroke-linecap="round" stroke-linejoin="round"/>
</svg>
