<svg width="18" height="18" viewBox="0 0 18 18" fill="none" xmlns="http://www.w3.org/2000/svg">
<path d="M15.81 6.435V11.565C15.81 12.405 15.36 13.185 14.6325 13.6125L10.1775 16.185C9.45 16.605 8.55 16.605 7.815 16.185L3.36 13.6125C3.00133 13.4045 2.7037 13.1059 2.49701 12.7465C2.29032 12.3871 2.18185 11.9796 2.1825 11.565V6.435C2.1825 5.595 2.6325 4.815 3.36 4.3875L7.815 1.815C8.5425 1.395 9.4425 1.395 10.1775 1.815L14.6325 4.3875C15.36 4.815 15.81 5.5875 15.81 6.435Z" stroke="white" stroke-width="1.5" stroke-linecap="round" stroke-linejoin="round"/>
<path d="M12 12.4949C12 11.1449 10.6575 10.0499 9 10.0499C7.3425 10.0499 6 11.1449 6 12.4949M9 8.24988C9.46347 8.24988 9.90795 8.06577 10.2357 7.73805C10.5634 7.41033 10.7475 6.96585 10.7475 6.50238C10.7475 6.03892 10.5634 5.59443 10.2357 5.26671C9.90795 4.93899 9.46347 4.75488 9 4.75488C8.53653 4.75488 8.09205 4.93899 7.76433 5.26671C7.43661 5.59443 7.2525 6.03892 7.2525 6.50238C7.2525 6.96585 7.43661 7.41033 7.76433 7.73805C8.09205 8.06577 8.53653 8.24988 9 8.24988Z" stroke="white" stroke-width="1.5" stroke-linecap="round" stroke-linejoin="round"/>
</svg>
