<svg width="20" height="20" viewBox="0 0 20 20" fill="none" xmlns="http://www.w3.org/2000/svg">
<path d="M9.50703 9.12175C10.1915 9.80638 10.612 10.7108 10.6944 11.6754C10.7767 12.64 10.5156 13.6027 9.95703 14.3934L9.83953 14.5517L13.3537 18.0667L13.4162 18.1392C13.5078 18.2633 13.5518 18.4161 13.5403 18.5699C13.5288 18.7237 13.4625 18.8683 13.3535 18.9773C13.2444 19.0864 13.0998 19.1527 12.9461 19.1642C12.7923 19.1757 12.6394 19.1317 12.5154 19.0401L12.4429 18.9776L8.89536 15.4309C8.04878 15.9968 7.02211 16.2279 6.01469 16.0794C5.00728 15.9308 4.09101 15.4132 3.4438 14.627C2.79658 13.8409 2.46461 12.8422 2.51233 11.8251C2.56005 10.8079 2.98406 9.8447 3.70203 9.12258C4.47185 8.35285 5.5159 7.92043 6.60453 7.92043C7.69316 7.92043 8.73721 8.35202 9.50703 9.12175ZM10.9404 1.66675C11.4374 1.66696 11.9139 1.86449 12.2654 2.21591L14.6087 4.55758L16.9487 6.90091C17.2995 7.25258 17.497 7.72925 17.497 8.22591V16.4584C17.497 16.9557 17.2995 17.4326 16.9479 17.7842C16.5962 18.1359 16.1193 18.3334 15.622 18.3334H14.3637C14.3319 18.0828 14.236 17.8446 14.0854 17.6417L13.9854 17.5226L13.5462 17.0826L15.6212 17.0834C15.787 17.0834 15.9459 17.0176 16.0631 16.9004C16.1804 16.7831 16.2462 16.6242 16.2462 16.4584V8.33591H12.7079C12.2329 8.33599 11.7756 8.1558 11.4283 7.83174C11.0811 7.50769 10.8698 7.06392 10.837 6.59008L10.8329 6.46175V2.91675H6.0412C5.87544 2.91675 5.71647 2.9826 5.59926 3.09981C5.48205 3.21702 5.4162 3.37599 5.4162 3.54175V7.22591C4.97903 7.32961 4.55816 7.4928 4.16536 7.71091L4.1662 3.54175C4.1662 3.04447 4.36374 2.56755 4.71537 2.21592C5.067 1.86429 5.54392 1.66675 6.0412 1.66675H10.9404ZM4.61286 10.0334C4.34487 10.2935 4.13128 10.6043 3.98451 10.9477C3.83774 11.2911 3.76073 11.6603 3.75796 12.0337C3.75519 12.4072 3.82671 12.7775 3.96836 13.123C4.11001 13.4686 4.31897 13.7825 4.58307 14.0465C4.84717 14.3106 5.16115 14.5195 5.50673 14.6611C5.85231 14.8026 6.2226 14.8741 6.59605 14.8712C6.96949 14.8684 7.33865 14.7913 7.68203 14.6445C8.02541 14.4976 8.33616 14.284 8.5962 14.0159C9.12077 13.4869 9.41442 12.7717 9.41286 12.0267C9.4113 11.2817 9.11467 10.5677 8.58788 10.0409C8.0611 9.51411 7.34707 9.21748 6.60209 9.21592C5.85711 9.21436 5.14185 9.50801 4.61286 10.0326V10.0334ZM12.0829 3.80008V6.46175C12.0829 6.77841 12.3179 7.03925 12.6229 7.08091L12.7079 7.08675L15.367 7.08591L12.0829 3.80008Z" fill="#5B5B5B"/>
</svg>
