<svg width="18" height="18" viewBox="0 0 18 18" fill="none" xmlns="http://www.w3.org/2000/svg">
<path d="M0.75 16.4998H17.25M14.835 16.5073V13.1623M1.575 16.4998V4.52232C1.575 3.01482 2.325 2.25732 3.8175 2.25732H8.49C9.9825 2.25732 10.725 3.01482 10.725 4.52232V16.4998M4.35 6.18732H8.0625M4.35 8.99982H8.0625M6.1875 16.4998V13.6873M14.85 8.16732C13.935 8.16732 13.2 8.90232 13.2 9.81732V11.5198C13.2 12.4348 13.935 13.1698 14.85 13.1698C15.765 13.1698 16.5 12.4348 16.5 11.5198V9.81732C16.5 8.90232 15.765 8.16732 14.85 8.16732Z" stroke="#777777" stroke-width="1.5" stroke-miterlimit="10" stroke-linecap="round" stroke-linejoin="round"/>
</svg>
