<svg width="18" height="18" viewBox="0 0 18 18" fill="none" xmlns="http://www.w3.org/2000/svg">
<path d="M12.3075 3C13.7625 3 14.9325 4.1775 14.9325 5.625C14.9325 7.0425 13.8075 8.1975 12.405 8.25C12.3403 8.2425 12.2748 8.2425 12.21 8.25M13.755 15C14.295 14.8875 14.805 14.67 15.225 14.3475C16.395 13.47 16.395 12.0225 15.225 11.145C14.8125 10.83 14.31 10.62 13.7775 10.5M6.87004 8.1525C6.79504 8.145 6.70504 8.145 6.62254 8.1525C5.76169 8.12327 4.94602 7.76013 4.34826 7.13997C3.7505 6.51981 3.41759 5.69134 3.42004 4.83C3.42004 2.9925 4.90504 1.5 6.75004 1.5C7.63222 1.48409 8.48458 1.81927 9.11963 2.43181C9.75467 3.04435 10.1204 3.88407 10.1363 4.76625C10.1522 5.64843 9.81702 6.50079 9.20448 7.13584C8.59194 7.77088 7.75222 8.13659 6.87004 8.1525ZM3.12004 10.92C1.30504 12.135 1.30504 14.115 3.12004 15.3225C5.18254 16.7025 8.56504 16.7025 10.6275 15.3225C12.4425 14.1075 12.4425 12.1275 10.6275 10.92C8.57254 9.5475 5.19004 9.5475 3.12004 10.92Z" stroke="#777777" stroke-width="1.5" stroke-linecap="round" stroke-linejoin="round"/>
</svg>
