<svg width="29" height="29" viewBox="0 0 29 29" fill="none" xmlns="http://www.w3.org/2000/svg">
<path d="M14.524 3.51624C10.5244 3.51624 7.27397 6.76665 7.27397 10.7662V14.2583C7.27397 14.9954 6.9598 16.1191 6.58522 16.7475L5.19563 19.0554C4.33772 20.4812 4.9298 22.0641 6.50063 22.5958C11.7086 24.3358 17.3273 24.3358 22.5352 22.5958C23.9973 22.1125 24.6377 20.3846 23.8402 19.0554L22.4506 16.7475C22.0881 16.1191 21.774 14.9954 21.774 14.2583V10.7662C21.774 6.77873 18.5115 3.51624 14.524 3.51624Z" stroke="#999999" stroke-width="1.5" stroke-miterlimit="10" stroke-linecap="round"/>
<path d="M16.7599 3.86662C15.2987 3.45045 13.7503 3.45045 12.2891 3.86662C12.6395 2.97245 13.5095 2.34412 14.5245 2.34412C15.5395 2.34412 16.4095 2.97245 16.7599 3.86662Z" stroke="#999999" stroke-width="1.5" stroke-miterlimit="10" stroke-linecap="round" stroke-linejoin="round"/>
<path d="M18.1494 23.0309C18.1494 25.0246 16.5182 26.6559 14.5244 26.6559C13.5336 26.6559 12.6152 26.2451 11.9627 25.5926C11.2839 24.9126 10.9016 23.9917 10.8994 23.0309" stroke="#999999" stroke-width="1.5" stroke-miterlimit="10"/>
</svg>
