<svg width="20" height="20" viewBox="0 0 20 20" fill="none" xmlns="http://www.w3.org/2000/svg">
<path d="M9.50703 9.12199C10.1915 9.80662 10.612 10.7111 10.6944 11.6757C10.7767 12.6403 10.5156 13.6029 9.95703 14.3937L9.83953 14.552L13.3537 18.067L13.4162 18.1395C13.5078 18.2636 13.5518 18.4164 13.5403 18.5702C13.5288 18.724 13.4625 18.8685 13.3535 18.9776C13.2444 19.0866 13.0998 19.1529 12.9461 19.1645C12.7923 19.176 12.6394 19.1319 12.5154 19.0403L12.4429 18.9778L8.89536 15.4312C8.04878 15.9971 7.02211 16.2282 6.01469 16.0796C5.00728 15.9311 4.09101 15.4135 3.4438 14.6273C2.79658 13.8411 2.46461 12.8425 2.51233 11.8253C2.56005 10.8081 2.98406 9.84495 3.70203 9.12283C4.47185 8.35309 5.5159 7.92067 6.60453 7.92067C7.69316 7.92067 8.73721 8.35226 9.50703 9.12199ZM10.9404 1.66699C11.4374 1.66721 11.9139 1.86473 12.2654 2.21616L14.6087 4.55783L16.9487 6.90116C17.2995 7.25283 17.497 7.72949 17.497 8.22616V16.4587C17.497 16.9559 17.2995 17.4329 16.9479 17.7845C16.5962 18.1361 16.1193 18.3337 15.622 18.3337H14.3637C14.3319 18.083 14.236 17.8448 14.0854 17.642L13.9854 17.5228L13.5462 17.0828L15.6212 17.0837C15.787 17.0837 15.9459 17.0178 16.0631 16.9006C16.1804 16.7834 16.2462 16.6244 16.2462 16.4587V8.33616H12.7079C12.2329 8.33623 11.7756 8.15604 11.4283 7.83199C11.0811 7.50793 10.8698 7.06417 10.837 6.59033L10.8329 6.46199V2.91699H6.0412C5.87544 2.91699 5.71647 2.98284 5.59926 3.10005C5.48205 3.21726 5.4162 3.37623 5.4162 3.54199V7.22616C4.97903 7.32985 4.55816 7.49304 4.16536 7.71116L4.1662 3.54199C4.1662 3.04471 4.36374 2.5678 4.71537 2.21617C5.067 1.86454 5.54392 1.66699 6.0412 1.66699H10.9404ZM4.61286 10.0337C4.34487 10.2938 4.13128 10.6046 3.98451 10.948C3.83774 11.2914 3.76073 11.6605 3.75796 12.034C3.75519 12.4074 3.82671 12.7777 3.96836 13.1233C4.11001 13.4688 4.31897 13.7827 4.58307 14.0468C4.84717 14.3108 5.16115 14.5197 5.50673 14.6613C5.85231 14.8029 6.2226 14.8743 6.59605 14.8715C6.96949 14.8686 7.33865 14.7915 7.68203 14.6447C8.02541 14.4979 8.33616 14.2842 8.5962 14.0162C9.12077 13.4872 9.41442 12.7719 9.41286 12.0269C9.4113 11.2819 9.11467 10.5679 8.58788 10.0411C8.0611 9.51436 7.34707 9.21772 6.60209 9.21617C5.85711 9.21461 5.14185 9.50825 4.61286 10.0328V10.0337ZM12.0829 3.80033V6.46199C12.0829 6.77866 12.3179 7.03949 12.6229 7.08116L12.7079 7.08699L15.367 7.08616L12.0829 3.80033Z" fill="#5B5B5B"/>
</svg>
