<svg width="29" height="29" viewBox="0 0 29 29" fill="none" xmlns="http://www.w3.org/2000/svg">
<path d="M14.5237 3.51611C10.5241 3.51611 7.27372 6.76653 7.27372 10.7661V14.2582C7.27372 14.9953 6.95956 16.119 6.58497 16.7474L5.19539 19.0553C4.33747 20.4811 4.92956 22.064 6.50039 22.5957C11.7083 24.3357 17.3271 24.3357 22.535 22.5957C23.9971 22.1124 24.6375 20.3844 23.84 19.0553L22.4504 16.7474C22.0879 16.119 21.7737 14.9953 21.7737 14.2582V10.7661C21.7737 6.77861 18.5112 3.51611 14.5237 3.51611Z" stroke="#999999" stroke-width="1.5" stroke-miterlimit="10" stroke-linecap="round"/>
<path d="M16.7599 3.86674C15.2987 3.45058 13.7503 3.45058 12.2891 3.86674C12.6395 2.97257 13.5095 2.34424 14.5245 2.34424C15.5395 2.34424 16.4095 2.97257 16.7599 3.86674Z" stroke="#999999" stroke-width="1.5" stroke-miterlimit="10" stroke-linecap="round" stroke-linejoin="round"/>
<path d="M18.1494 23.0308C18.1494 25.0245 16.5182 26.6558 14.5244 26.6558C13.5336 26.6558 12.6152 26.2449 11.9627 25.5924C11.2839 24.9125 10.9016 23.9916 10.8994 23.0308" stroke="#999999" stroke-width="1.5" stroke-miterlimit="10"/>
</svg>
