<svg width="18" height="18" viewBox="0 0 18 18" fill="none" xmlns="http://www.w3.org/2000/svg">
<path d="M0.75 16.5001H17.25M14.835 16.5076V13.1626M1.575 16.5001V4.52257C1.575 3.01507 2.325 2.25757 3.8175 2.25757H8.49C9.9825 2.25757 10.725 3.01507 10.725 4.52257V16.5001M4.35 6.18757H8.0625M4.35 9.00007H8.0625M6.1875 16.5001V13.6876M14.85 8.16757C13.935 8.16757 13.2 8.90257 13.2 9.81757V11.5201C13.2 12.4351 13.935 13.1701 14.85 13.1701C15.765 13.1701 16.5 12.4351 16.5 11.5201V9.81757C16.5 8.90257 15.765 8.16757 14.85 8.16757Z" stroke="#777777" stroke-width="1.5" stroke-miterlimit="10" stroke-linecap="round" stroke-linejoin="round"/>
</svg>
