<svg width="18" height="18" viewBox="0 0 18 18" fill="none" xmlns="http://www.w3.org/2000/svg">
<path d="M12.3075 3.00005C13.7625 3.00005 14.9325 4.17755 14.9325 5.62505C14.9325 7.04255 13.8075 8.19755 12.405 8.25005C12.3403 8.24255 12.2748 8.24255 12.21 8.25005M13.755 15.0001C14.295 14.8876 14.805 14.6701 15.225 14.3476C16.395 13.4701 16.395 12.0226 15.225 11.1451C14.8125 10.8301 14.31 10.6201 13.7775 10.5001M6.87004 8.15255C6.79504 8.14505 6.70504 8.14505 6.62254 8.15255C5.76169 8.12333 4.94602 7.76018 4.34826 7.14002C3.7505 6.51987 3.41759 5.69139 3.42004 4.83005C3.42004 2.99255 4.90504 1.50005 6.75004 1.50005C7.63222 1.48414 8.48458 1.81932 9.11963 2.43186C9.75467 3.0444 10.1204 3.88413 10.1363 4.7663C10.1522 5.64848 9.81702 6.50085 9.20448 7.13589C8.59194 7.77094 7.75222 8.13664 6.87004 8.15255ZM3.12004 10.9201C1.30504 12.1351 1.30504 14.1151 3.12004 15.3226C5.18254 16.7026 8.56504 16.7026 10.6275 15.3226C12.4425 14.1076 12.4425 12.1276 10.6275 10.9201C8.57254 9.54755 5.19004 9.54755 3.12004 10.9201Z" stroke="#777777" stroke-width="1.5" stroke-linecap="round" stroke-linejoin="round"/>
</svg>
