<svg width="16" height="13" viewBox="0 0 16 13" fill="none" xmlns="http://www.w3.org/2000/svg">
<path d="M4.05211 5.34271C3.83687 4.93126 3.72952 4.47193 3.74011 4.00771C3.73408 3.54182 3.84478 3.08184 4.06211 2.66971C4.27573 2.2649 4.5783 1.91378 4.94711 1.64271C5.36019 1.3476 5.81945 1.12321 6.30611 0.978707C6.87322 0.818923 7.45993 0.739482 8.04911 0.742707C8.64914 0.734377 9.24636 0.826308 9.81611 1.01471C10.3097 1.1742 10.7671 1.42939 11.1621 1.76571C11.531 2.07796 11.8258 2.46839 12.0251 2.90871C12.2285 3.3637 12.3308 3.85736 12.3251 4.35571H9.92811C9.93074 4.12355 9.89004 3.89294 9.80811 3.67571C9.7383 3.4677 9.61724 3.28062 9.45611 3.13171C9.28251 2.97427 9.07823 2.85443 8.85611 2.77971C8.58239 2.69224 8.29646 2.64903 8.00911 2.65171C7.73135 2.64439 7.45403 2.67808 7.18611 2.75171C6.97806 2.81155 6.78281 2.90918 6.61011 3.03971C6.46241 3.15926 6.34233 3.30936 6.25811 3.47971C6.17884 3.64442 6.13781 3.82491 6.13811 4.00771C6.14483 4.2063 6.2029 4.39976 6.30665 4.56924C6.4104 4.73871 6.5563 4.8784 6.73011 4.97471C7.07949 5.21526 7.46042 5.4064 7.86211 5.54271H4.17211C4.13211 5.47871 4.08411 5.40671 4.05211 5.34271ZM15.0521 7.94271V6.34271H0.662109V7.94271H8.35311C8.49711 7.99871 8.67311 8.05471 8.79311 8.10271C9.04219 8.20968 9.27727 8.3467 9.49311 8.51071C9.64666 8.62904 9.76549 8.78656 9.83711 8.96671C9.89738 9.14442 9.92713 9.33106 9.92511 9.51871C9.92426 9.70051 9.88614 9.88021 9.81311 10.0467C9.73713 10.2132 9.62182 10.3587 9.47711 10.4707C9.30684 10.5985 9.11421 10.6935 8.90911 10.7507C8.64579 10.82 8.37437 10.8536 8.10211 10.8507C7.78485 10.8566 7.46809 10.823 7.15911 10.7507C6.89655 10.6881 6.64908 10.5739 6.43111 10.4147C6.22573 10.2577 6.06337 10.0513 5.95911 9.81471C5.82811 9.5091 5.76009 9.18021 5.75911 8.84771H3.38011C3.37517 9.27633 3.44002 9.70291 3.57211 10.1107C3.6921 10.459 3.86771 10.7856 4.09211 11.0777C4.31495 11.3607 4.57887 11.6088 4.87511 11.8137C5.17777 12.026 5.50519 12.2006 5.85011 12.3337C6.20647 12.4711 6.57468 12.5755 6.95011 12.6457C7.33037 12.7107 7.71534 12.7441 8.10111 12.7457C8.68978 12.7539 9.27663 12.6785 9.84411 12.5217C10.3228 12.3912 10.7747 12.1772 11.1791 11.8897C11.5406 11.624 11.8337 11.2761 12.0341 10.8747C12.2399 10.4489 12.3426 9.98059 12.3341 9.50771C12.3431 9.06602 12.2586 8.62743 12.0861 8.22071C12.0456 8.1303 12.0002 8.04217 11.9501 7.95671H15.0521V7.94271Z" fill="#777777"/>
</svg>
