<svg width="16" height="13" viewBox="0 0 16 13" fill="none" xmlns="http://www.w3.org/2000/svg">
<path d="M2.33131 0.75C2.05734 0.749803 1.78947 0.830863 1.56158 0.982929C1.33368 1.13499 1.15601 1.35123 1.05103 1.60429C0.946046 1.85735 0.918476 2.13586 0.971804 2.40459C1.02513 2.67332 1.15696 2.92019 1.35062 3.11399C1.54427 3.30779 1.79105 3.43979 2.05975 3.49331C2.32844 3.54684 2.60696 3.51947 2.8601 3.41467C3.11323 3.30987 3.3296 3.13235 3.48183 2.90457C3.63406 2.67679 3.71531 2.40897 3.71531 2.135C3.71531 1.76785 3.56953 1.41572 3.31001 1.15601C3.05049 0.896302 2.69846 0.750265 2.33131 0.75ZM2.33131 5.365C2.05734 5.3648 1.78947 5.44586 1.56158 5.59793C1.33368 5.74999 1.15601 5.96623 1.05103 6.21929C0.946046 6.47235 0.918476 6.75086 0.971804 7.01959C1.02513 7.28832 1.15696 7.53519 1.35062 7.72899C1.54427 7.92278 1.79105 8.05479 2.05975 8.10831C2.32844 8.16184 2.60696 8.13447 2.8601 8.02967C3.11323 7.92487 3.3296 7.74735 3.48183 7.51957C3.63406 7.29179 3.71531 7.02397 3.71531 6.75C3.71531 6.38285 3.56953 6.03072 3.31001 5.77101C3.05049 5.5113 2.69846 5.36527 2.33131 5.365ZM2.33131 9.98C2.05734 9.9798 1.78947 10.0609 1.56158 10.2129C1.33368 10.365 1.15601 10.5812 1.05103 10.8343C0.946046 11.0873 0.918476 11.3659 0.971804 11.6346C1.02513 11.9033 1.15696 12.1502 1.35062 12.344C1.54427 12.5378 1.79105 12.6698 2.05975 12.7233C2.32844 12.7768 2.60696 12.7495 2.8601 12.6447C3.11323 12.5399 3.3296 12.3624 3.48183 12.1346C3.63406 11.9068 3.71531 11.639 3.71531 11.365C3.71531 11.1831 3.67949 11.003 3.60989 10.835C3.54028 10.6669 3.43827 10.5143 3.30966 10.3857C3.18105 10.257 3.02837 10.155 2.86033 10.0854C2.69229 10.0158 2.51219 9.98 2.33031 9.98H2.33131ZM15.2543 10.442H6.02331C5.90078 10.442 5.78327 10.4907 5.69663 10.5773C5.60999 10.664 5.56131 10.7815 5.56131 10.904V11.827C5.56131 11.8877 5.57326 11.9477 5.59648 12.0038C5.6197 12.0599 5.65373 12.1108 5.69663 12.1537C5.73953 12.1966 5.79046 12.2306 5.84651 12.2538C5.90257 12.2771 5.96264 12.289 6.02331 12.289H15.2543C15.315 12.289 15.3751 12.2771 15.4311 12.2538C15.4872 12.2306 15.5381 12.1966 15.581 12.1537C15.6239 12.1108 15.6579 12.0599 15.6811 12.0038C15.7044 11.9477 15.7163 11.8877 15.7163 11.827V10.904C15.7163 10.7815 15.6676 10.664 15.581 10.5773C15.4944 10.4907 15.3768 10.442 15.2543 10.442ZM15.2543 1.211H6.02331C5.90078 1.211 5.78327 1.25968 5.69663 1.34632C5.60999 1.43296 5.56131 1.55047 5.56131 1.673V2.596C5.56131 2.71853 5.60999 2.83604 5.69663 2.92268C5.78327 3.00933 5.90078 3.058 6.02331 3.058H15.2543C15.3768 3.058 15.4944 3.00933 15.581 2.92268C15.6676 2.83604 15.7163 2.71853 15.7163 2.596V1.675C15.7164 1.61425 15.7046 1.55406 15.6814 1.49789C15.6583 1.44173 15.6243 1.39068 15.5814 1.34767C15.5384 1.30466 15.4875 1.27054 15.4313 1.24726C15.3752 1.22398 15.3151 1.211 15.2543 1.211ZM15.2543 5.826H6.02331C5.90078 5.826 5.78327 5.87468 5.69663 5.96132C5.60999 6.04796 5.56131 6.16547 5.56131 6.288V7.211C5.56131 7.33353 5.60999 7.45104 5.69663 7.53768C5.78327 7.62433 5.90078 7.673 6.02331 7.673H15.2543C15.3768 7.673 15.4944 7.62433 15.581 7.53768C15.6676 7.45104 15.7163 7.33353 15.7163 7.211V6.288C15.716 6.16564 15.6673 6.04839 15.5806 5.96196C15.494 5.87554 15.3767 5.826 15.2543 5.826Z" fill="#777777"/>
</svg>
