<svg width="15" height="12" viewBox="0 0 15 12" fill="none" xmlns="http://www.w3.org/2000/svg">
<path d="M2.15409 9.884L2.62309 9.344C2.71638 9.24 2.76521 9.10358 2.75909 8.964V8.875C2.76352 8.83452 2.75881 8.79356 2.7453 8.75515C2.73179 8.71673 2.70983 8.68184 2.68104 8.65305C2.65224 8.62426 2.61735 8.60229 2.57894 8.58879C2.54052 8.57528 2.49956 8.57057 2.45909 8.575H0.928085C0.871329 8.575 0.816897 8.59755 0.776765 8.63768C0.736632 8.67781 0.714085 8.73224 0.714085 8.789V9.218C0.714085 9.27476 0.736632 9.32919 0.776765 9.36932C0.816897 9.40945 0.871329 9.432 0.928085 9.432H1.53909C1.43504 9.53676 1.33657 9.64691 1.24409 9.762L1.09909 9.95C1.0472 10.001 1.0122 10.0667 0.998792 10.1382C0.985383 10.2097 0.99421 10.2837 1.02409 10.35L1.05209 10.402C1.07671 10.4678 1.12194 10.5239 1.18105 10.562C1.24016 10.6 1.30997 10.6179 1.38009 10.613H1.49909C1.77609 10.613 1.92609 10.678 1.92609 10.856C1.92609 10.982 1.81409 11.076 1.54109 11.076C1.39899 11.0747 1.25846 11.0462 1.12709 10.992C0.953085 10.892 0.813085 10.898 0.709085 11.076L0.559085 11.325C0.533629 11.3569 0.515231 11.3938 0.505107 11.4333C0.494984 11.4728 0.493367 11.514 0.500363 11.5542C0.507358 11.5943 0.522808 11.6326 0.545688 11.6663C0.568569 11.7001 0.598358 11.7286 0.633085 11.75C0.934524 11.9222 1.27697 12.0097 1.62409 12.003C1.78918 12.0208 1.95618 12.0034 2.11406 11.952C2.27194 11.9005 2.4171 11.8161 2.53996 11.7044C2.66283 11.5927 2.76059 11.4562 2.82681 11.3039C2.89302 11.1516 2.92618 10.987 2.92409 10.821C2.92168 10.6005 2.84404 10.3874 2.70402 10.217C2.56399 10.0466 2.36997 9.9291 2.15409 9.884ZM13.7851 5.143H5.21309C5.09931 5.143 4.99019 5.1882 4.90974 5.26865C4.82928 5.3491 4.78409 5.45822 4.78409 5.572V6.429C4.78409 6.54278 4.82928 6.6519 4.90974 6.73235C4.99019 6.8128 5.09931 6.858 5.21309 6.858H13.7841C13.8404 6.858 13.8962 6.8469 13.9483 6.82534C14.0003 6.80378 14.0476 6.77218 14.0874 6.73235C14.1273 6.69251 14.1589 6.64522 14.1804 6.59317C14.202 6.54112 14.2131 6.48534 14.2131 6.429V5.571C14.2128 5.45757 14.1676 5.34886 14.0874 5.26865C14.0072 5.18844 13.8985 5.14326 13.7851 5.143ZM13.7851 0.857H5.21309C5.09931 0.857 4.99019 0.902198 4.90974 0.982651C4.82928 1.0631 4.78409 1.17222 4.78409 1.286V2.143C4.78409 2.19934 4.79518 2.25512 4.81674 2.30717C4.8383 2.35922 4.8699 2.40651 4.90974 2.44635C4.94957 2.48619 4.99687 2.51779 5.04891 2.53934C5.10096 2.5609 5.15675 2.572 5.21309 2.572H13.7841C13.8404 2.572 13.8962 2.5609 13.9483 2.53934C14.0003 2.51779 14.0476 2.48619 14.0874 2.44635C14.1273 2.40651 14.1589 2.35922 14.1804 2.30717C14.202 2.25512 14.2131 2.19934 14.2131 2.143V1.286C14.2131 1.1724 14.168 1.06343 14.0878 0.983004C14.0076 0.90258 13.8987 0.857265 13.7851 0.857ZM13.7851 9.428H5.21309C5.09931 9.428 4.99019 9.4732 4.90974 9.55365C4.82928 9.6341 4.78409 9.74322 4.78409 9.857V10.714C4.78409 10.8278 4.82928 10.9369 4.90974 11.0173C4.99019 11.0978 5.09931 11.143 5.21309 11.143H13.7841C13.8404 11.143 13.8962 11.1319 13.9483 11.1103C14.0003 11.0888 14.0476 11.0572 14.0874 11.0173C14.1273 10.9775 14.1589 10.9302 14.1804 10.8782C14.202 10.8261 14.2131 10.7703 14.2131 10.714V9.857C14.2128 9.74357 14.1676 9.63486 14.0874 9.55465C14.0072 9.47444 13.8985 9.42826 13.7851 9.428ZM0.928085 3.428H2.64209C2.69884 3.428 2.75327 3.40545 2.79341 3.36532C2.83354 3.32519 2.85609 3.27076 2.85609 3.214V2.786C2.85609 2.7579 2.85055 2.73007 2.8398 2.70411C2.82904 2.67814 2.81328 2.65455 2.79341 2.63468C2.77353 2.61481 2.74994 2.59904 2.72398 2.58829C2.69802 2.57754 2.67019 2.572 2.64209 2.572H2.21309V0.214C2.21309 0.157244 2.19054 0.102812 2.15041 0.0626791C2.11027 0.0225463 2.05584 0 1.99909 0H1.35609C1.31644 4.79901e-05 1.27759 0.0111063 1.24387 0.0319417C1.21014 0.052777 1.18287 0.0825706 1.16509 0.118L0.951085 0.55C0.934719 0.582607 0.92696 0.618856 0.928547 0.655306C0.930133 0.691755 0.941012 0.727194 0.96015 0.758255C0.979288 0.789317 1.00605 0.81497 1.03789 0.832777C1.06973 0.850585 1.1056 0.859956 1.14209 0.86H1.35609V2.571H0.928085C0.899983 2.571 0.872155 2.57654 0.846191 2.58729C0.820228 2.59804 0.796636 2.61381 0.776765 2.63368C0.756893 2.65355 0.74113 2.67714 0.730375 2.70311C0.719621 2.72907 0.714085 2.7569 0.714085 2.785V3.214C0.713954 3.24219 0.719392 3.27012 0.730087 3.2962C0.740783 3.32228 0.756525 3.34599 0.77641 3.36597C0.796295 3.38595 0.81993 3.4018 0.84596 3.41262C0.871989 3.42343 0.899898 3.428 0.928085 3.428ZM0.828085 7.714H2.64209C2.69884 7.714 2.75327 7.69145 2.79341 7.65132C2.83354 7.61119 2.85609 7.55676 2.85609 7.5V7.071C2.85609 7.01424 2.83354 6.95981 2.79341 6.91968C2.75327 6.87955 2.69884 6.857 2.64209 6.857H1.60609C1.69409 6.582 2.89909 6.357 2.89909 5.35C2.89689 5.20001 2.86361 5.0521 2.80136 4.91562C2.7391 4.77914 2.64922 4.65705 2.5374 4.55706C2.42557 4.45707 2.29422 4.38136 2.15165 4.33471C2.00908 4.28805 1.85839 4.27147 1.70909 4.286C1.5016 4.27669 1.2949 4.31723 1.1063 4.40422C0.917701 4.49121 0.752689 4.62213 0.625085 4.786C0.597679 4.81603 0.577551 4.85197 0.56626 4.89103C0.554968 4.93009 0.552816 4.97123 0.559971 5.01125C0.567125 5.05128 0.583393 5.08912 0.607517 5.12185C0.63164 5.15458 0.662971 5.18132 0.699085 5.2L0.929085 5.384C1.07909 5.506 1.22409 5.45 1.36109 5.319C1.42909 5.25386 1.51992 5.21796 1.61409 5.219C1.64626 5.21601 1.67869 5.21989 1.70925 5.23038C1.73981 5.24088 1.76779 5.25775 1.79133 5.27987C1.81487 5.302 1.83345 5.32888 1.84582 5.35872C1.85819 5.38857 1.86407 5.42071 1.86309 5.453C1.86509 5.791 0.499085 6.035 0.499085 7.302V7.409C0.497112 7.45123 0.504299 7.49338 0.520153 7.53257C0.536007 7.57175 0.560153 7.60705 0.590934 7.63602C0.621714 7.665 0.658399 7.68697 0.698472 7.70043C0.738544 7.71389 0.781055 7.71852 0.823085 7.714H0.828085Z" fill="#777777"/>
</svg>
