<svg width="20" height="18" viewBox="0 0 20 18" fill="none" xmlns="http://www.w3.org/2000/svg">
<path d="M17.7638 2.26358C17.3086 1.80732 16.7679 1.44533 16.1727 1.19834C15.5774 0.951353 14.9393 0.824219 14.2948 0.824219C13.6503 0.824219 13.0122 0.951353 12.4169 1.19834C11.8216 1.44533 11.2809 1.80732 10.8258 2.26358L9.88078 3.20858L8.93778 2.26358C8.01788 1.34328 6.77007 0.826098 5.46884 0.825817C4.16762 0.825536 2.91959 1.34217 1.99928 2.26208C1.07898 3.18198 0.561805 4.4298 0.561524 5.73102C0.561242 7.03224 1.07788 8.28028 1.99778 9.20058L2.94278 10.1456L9.88078 17.0836L16.8188 10.1456L17.7638 9.20058C18.2199 8.74543 18.5818 8.2048 18.8287 7.60963C19.0756 7.01446 19.2026 6.37643 19.2026 5.73208C19.2026 5.08772 19.0756 4.4497 18.8287 3.85453C18.5818 3.25935 18.2199 2.71872 17.7638 2.26358Z" fill="#FD5269"/>
</svg>
