<svg width="21" height="19" viewBox="0 0 21 19" fill="none" xmlns="http://www.w3.org/2000/svg">
<path d="M2.03322 7.87937H4.53322V17.9104H2.03322C1.81194 17.9101 1.59981 17.822 1.44343 17.6655C1.28705 17.5089 1.19922 17.2967 1.19922 17.0754V8.71537C1.19909 8.60572 1.22056 8.49711 1.2624 8.39576C1.30424 8.2944 1.36563 8.20228 1.44308 8.12465C1.52052 8.04702 1.6125 7.9854 1.71375 7.94332C1.81501 7.90123 1.92357 7.8795 2.03322 7.87937ZM6.45022 6.79837L11.7912 1.44837C11.8622 1.37711 11.9566 1.33391 12.0569 1.32674C12.1573 1.31958 12.2568 1.34892 12.3372 1.40937L13.0492 1.94437C13.2468 2.09326 13.396 2.29725 13.4781 2.53068C13.5601 2.76412 13.5713 3.01659 13.5102 3.25637L12.5482 7.04337H17.8892C18.1085 7.04364 18.3256 7.08709 18.5281 7.17126C18.7307 7.25543 18.9146 7.37866 19.0695 7.53392C19.2244 7.68918 19.3472 7.87343 19.4309 8.07614C19.5145 8.27885 19.5575 8.49607 19.5572 8.71537V10.4744C19.5575 10.6928 19.515 10.9092 19.4322 11.1114L16.8492 17.3934C16.7863 17.5464 16.6794 17.6773 16.5419 17.7693C16.4044 17.8614 16.2427 17.9105 16.0772 17.9104H7.04022C6.93057 17.9102 6.82201 17.8885 6.72075 17.8464C6.6195 17.8043 6.52752 17.7427 6.45008 17.6651C6.37263 17.5875 6.31124 17.4953 6.2694 17.394C6.22756 17.2926 6.20609 17.184 6.20622 17.0744V7.38937C6.20614 7.16785 6.29388 6.95532 6.45022 6.79837Z" stroke="#999999"/>
</svg>
