<svg width="18" height="18" viewBox="0 0 18 18" fill="none" xmlns="http://www.w3.org/2000/svg">
<path d="M15.8101 6.435V11.565C15.8101 12.405 15.3601 13.185 14.6326 13.6125L10.1776 16.185C9.45012 16.605 8.55012 16.605 7.81512 16.185L3.36012 13.6125C3.00145 13.4045 2.70382 13.1059 2.49713 12.7465C2.29044 12.3871 2.18197 11.9796 2.18262 11.565V6.435C2.18262 5.595 2.63262 4.815 3.36012 4.3875L7.81512 1.815C8.54262 1.395 9.44262 1.395 10.1776 1.815L14.6326 4.3875C15.3601 4.815 15.8101 5.5875 15.8101 6.435Z" stroke="#777777" stroke-width="1.5" stroke-linecap="round" stroke-linejoin="round"/>
<path d="M12 12.4939C12 11.1439 10.6575 10.0489 9 10.0489C7.3425 10.0489 6 11.1439 6 12.4939M9 8.24891C9.46347 8.24891 9.90795 8.0648 10.2357 7.73708C10.5634 7.40936 10.7475 6.96487 10.7475 6.50141C10.7475 6.03794 10.5634 5.59346 10.2357 5.26574C9.90795 4.93802 9.46347 4.75391 9 4.75391C8.53653 4.75391 8.09205 4.93802 7.76433 5.26574C7.43661 5.59346 7.2525 6.03794 7.2525 6.50141C7.2525 6.96487 7.43661 7.40936 7.76433 7.73708C8.09205 8.0648 8.53653 8.24891 9 8.24891Z" stroke="#777777" stroke-width="1.5" stroke-linecap="round" stroke-linejoin="round"/>
</svg>
