<svg width="201" height="201" viewBox="0 0 201 201" fill="none" xmlns="http://www.w3.org/2000/svg">
<path d="M201 100.5C201 120.295 195.155 139.648 184.197 156.133C173.239 172.618 157.658 185.5 139.407 193.164L100.5 100.5H201Z" fill="#2A8082"/>
<path d="M57.0223 191.109C41.7605 183.785 28.5957 172.726 18.7496 158.956L100.5 100.5L57.0223 191.109Z" fill="#61C9C9"/>
<path d="M57.0223 191.109C70.0141 197.343 84.1946 200.71 98.6021 200.982C113.01 201.254 127.307 198.425 140.525 192.686L100.5 100.5L57.0223 191.109Z" fill="#339F8D"/>
<path d="M146.986 11.397C163.608 20.0691 177.473 33.2181 187.014 49.3578C196.555 65.4975 201.391 83.9842 200.975 102.728L100.5 100.5L146.986 11.397Z" fill="#2C6552"/>
<path d="M64.1943 6.78689C82.9614 -0.483731 103.479 -1.95214 123.09 2.57185C142.702 7.09583 160.503 17.4038 174.189 32.1607L100.5 100.5L64.1943 6.78689Z" fill="#D8FCEA"/>
<path d="M54.7362 11.0241C78.4667 -1.11316 106.047 -3.32645 131.409 4.87115L100.5 100.5L54.7362 11.0241Z" fill="#58FFAD"/>
<path d="M6.4704 65.022C12.4037 49.2968 22.186 35.3106 34.9222 24.3436C47.6584 13.3765 62.9418 5.77874 79.3736 2.24561L100.5 100.5L6.4704 65.022Z" fill="#4AFBFF"/>
<path d="M0.338726 92.2557C2.52526 65.6912 15.1749 41.0834 35.5049 23.8457L100.5 100.5L0.338726 92.2557Z" fill="#AEFFD7"/>
<path d="M1.68473 118.825C-2.07366 98.5575 0.490689 77.625 9.03016 58.8644L100.5 100.5L1.68473 118.825Z" fill="#76EFEF"/>
<path d="M18.569 158.703C7.59074 143.249 1.20705 125.005 0.154918 106.078L100.5 100.5L18.569 158.703Z" fill="#9EE9C4"/>
</svg>
