<svg width="20" height="20" viewBox="0 0 20 20" fill="none" xmlns="http://www.w3.org/2000/svg">
<path d="M9.50703 9.12297C10.1915 9.8076 10.612 10.7121 10.6944 11.6767C10.7767 12.6412 10.5156 13.6039 9.95703 14.3946L9.83953 14.553L13.3537 18.068L13.4162 18.1405C13.5078 18.2645 13.5518 18.4174 13.5403 18.5712C13.5288 18.7249 13.4625 18.8695 13.3535 18.9786C13.2444 19.0876 13.0998 19.1539 12.9461 19.1654C12.7923 19.1769 12.6394 19.1329 12.5154 19.0413L12.4429 18.9788L8.89536 15.4321C8.04878 15.998 7.02211 16.2291 6.01469 16.0806C5.00728 15.932 4.09101 15.4144 3.4438 14.6283C2.79658 13.8421 2.46461 12.8435 2.51233 11.8263C2.56005 10.8091 2.98406 9.84593 3.70203 9.1238C4.47185 8.35407 5.5159 7.92165 6.60453 7.92165C7.69316 7.92165 8.73721 8.35324 9.50703 9.12297ZM10.9404 1.66797C11.4374 1.66819 11.9139 1.86571 12.2654 2.21714L14.6087 4.5588L16.9487 6.90214C17.2995 7.2538 17.497 7.73047 17.497 8.22714V16.4596C17.497 16.9569 17.2995 17.4338 16.9479 17.7855C16.5962 18.1371 16.1193 18.3346 15.622 18.3346H14.3637C14.3319 18.084 14.236 17.8458 14.0854 17.643L13.9854 17.5238L13.5462 17.0838L15.6212 17.0846C15.787 17.0846 15.9459 17.0188 16.0631 16.9016C16.1804 16.7844 16.2462 16.6254 16.2462 16.4596V8.33714H12.7079C12.2329 8.33721 11.7756 8.15702 11.4283 7.83297C11.0811 7.50891 10.8698 7.06514 10.837 6.5913L10.8329 6.46297V2.91797H6.0412C5.87544 2.91797 5.71647 2.98382 5.59926 3.10103C5.48205 3.21824 5.4162 3.37721 5.4162 3.54297V7.22713C4.97903 7.33083 4.55816 7.49402 4.16536 7.71214L4.1662 3.54297C4.1662 3.04569 4.36374 2.56877 4.71537 2.21714C5.067 1.86551 5.54392 1.66797 6.0412 1.66797H10.9404ZM4.61286 10.0346C4.34487 10.2947 4.13128 10.6055 3.98451 10.9489C3.83774 11.2923 3.76073 11.6615 3.75796 12.035C3.75519 12.4084 3.82671 12.7787 3.96836 13.1242C4.11001 13.4698 4.31897 13.7837 4.58307 14.0478C4.84717 14.3118 5.16115 14.5207 5.50673 14.6623C5.85231 14.8039 6.2226 14.8753 6.59605 14.8725C6.96949 14.8696 7.33865 14.7925 7.68203 14.6457C8.02541 14.4988 8.33616 14.2852 8.5962 14.0171C9.12077 13.4882 9.41442 12.7729 9.41286 12.0279C9.4113 11.2829 9.11467 10.5689 8.58788 10.0421C8.0611 9.51533 7.34707 9.2187 6.60209 9.21714C5.85711 9.21558 5.14185 9.50923 4.61286 10.0338V10.0346ZM12.0829 3.8013V6.46297C12.0829 6.77964 12.3179 7.04047 12.6229 7.08214L12.7079 7.08797L15.367 7.08714L12.0829 3.8013Z" fill="#5B5B5B"/>
</svg>
