<svg width="1201" height="70" viewBox="0 0 1201 70" fill="none" xmlns="http://www.w3.org/2000/svg">
<rect width="1201" height="70" fill="white"/>
<path d="M40.8337 41.5067C40.8337 42.1026 40.3505 42.5846 39.7557 42.5846H31.0782C30.7924 42.5846 30.5182 42.4711 30.316 42.2689C30.1139 42.0668 30.0003 41.7926 30.0003 41.5067C30.0003 41.2208 30.1139 40.9467 30.316 40.7445C30.5182 40.5424 30.7924 40.4288 31.0782 40.4288H39.7557C40.3516 40.4288 40.8337 40.9109 40.8337 41.5067ZM40.8337 35.0013C40.8337 35.5971 40.3505 36.0792 39.7557 36.0792H20.2449C19.959 36.0792 19.6849 35.9657 19.4827 35.7635C19.2806 35.5614 19.167 35.2872 19.167 35.0013C19.167 34.7154 19.2806 34.4412 19.4827 34.2391C19.6849 34.037 19.959 33.9234 20.2449 33.9234H39.7557C40.3516 33.9234 40.8337 34.4066 40.8337 35.0013ZM39.7557 29.5738C40.0416 29.5738 40.3158 29.4602 40.5179 29.2581C40.7201 29.0559 40.8337 28.7818 40.8337 28.4959C40.8337 28.21 40.7201 27.9358 40.5179 27.7337C40.3158 27.5315 40.0416 27.418 39.7557 27.418H26.7449C26.6034 27.418 26.4632 27.4458 26.3324 27.5C26.2016 27.5542 26.0828 27.6336 25.9827 27.7337C25.8826 27.8338 25.8032 27.9526 25.749 28.0834C25.6949 28.2142 25.667 28.3543 25.667 28.4959C25.667 28.6374 25.6949 28.7776 25.749 28.9084C25.8032 29.0392 25.8826 29.158 25.9827 29.2581C26.0828 29.3582 26.2016 29.4376 26.3324 29.4918C26.4632 29.5459 26.6034 29.5738 26.7449 29.5738H39.7557Z" fill="#5B5B5B"/>
</svg>
