<svg width="1201" height="70" viewBox="0 0 1201 70" fill="none" xmlns="http://www.w3.org/2000/svg">
<rect width="1201" height="70" fill="white"/>
<path d="M40.8337 41.5057C40.8337 42.1016 40.3505 42.5837 39.7557 42.5837H31.0782C30.7924 42.5837 30.5182 42.4701 30.316 42.2679C30.1139 42.0658 30.0003 41.7916 30.0003 41.5057C30.0003 41.2199 30.1139 40.9457 30.316 40.7435C30.5182 40.5414 30.7924 40.4278 31.0782 40.4278H39.7557C40.3516 40.4278 40.8337 40.9099 40.8337 41.5057ZM40.8337 35.0003C40.8337 35.5962 40.3505 36.0782 39.7557 36.0782H20.2449C19.959 36.0782 19.6849 35.9647 19.4827 35.7625C19.2806 35.5604 19.167 35.2862 19.167 35.0003C19.167 34.7144 19.2806 34.4403 19.4827 34.2381C19.6849 34.036 19.959 33.9224 20.2449 33.9224H39.7557C40.3516 33.9224 40.8337 34.4056 40.8337 35.0003ZM39.7557 29.5728C40.0416 29.5728 40.3158 29.4593 40.5179 29.2571C40.7201 29.055 40.8337 28.7808 40.8337 28.4949C40.8337 28.209 40.7201 27.9349 40.5179 27.7327C40.3158 27.5306 40.0416 27.417 39.7557 27.417H26.7449C26.6034 27.417 26.4632 27.4449 26.3324 27.499C26.2016 27.5532 26.0828 27.6326 25.9827 27.7327C25.8826 27.8328 25.8032 27.9516 25.749 28.0824C25.6949 28.2132 25.667 28.3534 25.667 28.4949C25.667 28.6365 25.6949 28.7766 25.749 28.9074C25.8032 29.0382 25.8826 29.157 25.9827 29.2571C26.0828 29.3572 26.2016 29.4366 26.3324 29.4908C26.4632 29.5449 26.6034 29.5728 26.7449 29.5728H39.7557Z" fill="#5B5B5B"/>
</svg>
