<svg width="18" height="18" viewBox="0 0 18 18" fill="none" xmlns="http://www.w3.org/2000/svg">
<path d="M0.75 16.5003H17.25M14.835 16.5078V13.1628M1.575 16.5003V4.52281C1.575 3.01531 2.325 2.25781 3.8175 2.25781H8.49C9.9825 2.25781 10.725 3.01531 10.725 4.52281V16.5003M4.35 6.18781H8.0625M4.35 9.00031H8.0625M6.1875 16.5003V13.6878M14.85 8.16781C13.935 8.16781 13.2 8.90281 13.2 9.81781V11.5203C13.2 12.4353 13.935 13.1703 14.85 13.1703C15.765 13.1703 16.5 12.4353 16.5 11.5203V9.81781C16.5 8.90281 15.765 8.16781 14.85 8.16781Z" stroke="#777777" stroke-width="1.5" stroke-miterlimit="10" stroke-linecap="round" stroke-linejoin="round"/>
</svg>
