<svg width="41" height="41" viewBox="0 0 41 41" fill="none" xmlns="http://www.w3.org/2000/svg">
<path d="M30 18V8.6235C30.0001 8.5051 29.9768 8.38784 29.9315 8.27845C29.8862 8.16905 29.8198 8.06967 29.736 7.986L25.014 3.264C24.8454 3.09517 24.6166 3.00021 24.378 3H6.9C6.66131 3 6.43239 3.09482 6.2636 3.2636C6.09482 3.43239 6 3.66131 6 3.9V32.1C6 32.3387 6.09482 32.5676 6.2636 32.7364C6.43239 32.9052 6.66131 33 6.9 33H19.5M12 15H24M12 9H18M12 21H16.5" stroke="black" stroke-width="1.5" stroke-linecap="round" stroke-linejoin="round"/>
<path d="M24 3V8.1C24 8.3387 24.0948 8.56761 24.2636 8.7364C24.4324 8.90518 24.6613 9 24.9 9H30" stroke="black" stroke-width="1.5" stroke-linecap="round" stroke-linejoin="round"/>
<path d="M27.4993 19.582L21.166 21.957V26.7783C21.166 30.7762 23.8656 34.5049 27.4993 35.4154C31.1331 34.5049 33.8327 30.7762 33.8327 26.7783V21.957L27.4993 19.582ZM32.2493 26.7783C32.2493 29.9449 30.2306 32.8741 27.4993 33.7687C24.7681 32.8741 22.7493 29.9529 22.7493 26.7783V23.0574L27.4993 21.2762L32.2493 23.0574V26.7783Z" fill="black"/>
<path d="M30 25L25 30M25 25L30 30" stroke="#FF0000" stroke-linecap="round" stroke-linejoin="round"/>
</svg>
