<svg width="36" height="36" viewBox="0 0 36 36" fill="none" xmlns="http://www.w3.org/2000/svg">
<path d="M30 18V8.6235C30.0001 8.5051 29.9768 8.38784 29.9315 8.27845C29.8862 8.16905 29.8198 8.06967 29.736 7.986L25.014 3.264C24.8454 3.09517 24.6166 3.00021 24.378 3H6.9C6.66131 3 6.43239 3.09482 6.2636 3.2636C6.09482 3.43239 6 3.66131 6 3.9V32.1C6 32.3387 6.09482 32.5676 6.2636 32.7364C6.43239 32.9052 6.66131 33 6.9 33H19.5M12 15H24M12 9H18M12 21H16.5" stroke="black" stroke-width="1.5" stroke-linecap="round" stroke-linejoin="round"/>
<path d="M24 3V8.1C24 8.3387 24.0948 8.56761 24.2636 8.7364C24.4324 8.90518 24.6613 9 24.9 9H30" stroke="black" stroke-width="1.5" stroke-linecap="round" stroke-linejoin="round"/>
<path d="M33.875 23.4632C33.875 22.9036 33.5421 22.3936 33.0321 22.1669L28.0738 19.964C27.7054 19.8011 27.2875 19.8011 26.9262 19.964L21.9679 22.1669C21.4579 22.3936 21.125 22.9036 21.125 23.4632V26.7923C21.125 30.7236 23.845 34.3998 27.5 35.2923C29.1292 34.8957 30.5671 33.9465 31.665 32.6644L29.455 30.4544C28.7741 30.9045 27.9584 31.1052 27.1464 31.0226C26.3344 30.9399 25.5759 30.5791 24.9996 30.0011C24.3361 29.3366 23.9635 28.4361 23.9635 27.4971C23.9635 26.5582 24.3361 25.6576 24.9996 24.9932C25.664 24.3297 26.5646 23.9571 27.5035 23.9571C28.4425 23.9571 29.3431 24.3297 30.0075 24.9932C30.5841 25.5703 30.944 26.3286 31.0265 27.1402C31.1091 27.9518 30.9093 28.7671 30.4608 29.4486L32.515 31.5027C33.3721 30.1144 33.875 28.4782 33.875 26.7923V23.4632Z" fill="black"/>
<path d="M27.5 29.625C28.6736 29.625 29.625 28.6736 29.625 27.5C29.625 26.3264 28.6736 25.375 27.5 25.375C26.3264 25.375 25.375 26.3264 25.375 27.5C25.375 28.6736 26.3264 29.625 27.5 29.625Z" fill="black"/>
</svg>
