<svg width="22" height="22" viewBox="0 0 22 22" fill="none" xmlns="http://www.w3.org/2000/svg">
<g clip-path="url(#clip0_894_13508)">
<path d="M18.0369 13.7631L20.8557 10.9251C20.9491 10.831 21.0014 10.7036 21.0009 10.571C21.0004 10.4384 20.9473 10.3114 20.8533 10.218L18.0152 7.3992C17.9451 7.32929 17.8558 7.28178 17.7586 7.2627C17.6614 7.24361 17.5608 7.2538 17.4694 7.29199C17.3781 7.33017 17.3001 7.39462 17.2454 7.47716C17.1907 7.55971 17.1618 7.65664 17.1622 7.75566L17.1709 10.0841L0.700323 10.1396L0.703736 11.1408L17.1743 11.084L17.1815 13.4125C17.1817 13.5115 17.2113 13.6082 17.2666 13.6904C17.3218 13.7726 17.4002 13.8365 17.4919 13.874C17.5835 13.9116 17.6842 13.9211 17.7812 13.9014C17.8783 13.8816 17.9672 13.8335 18.0369 13.7631Z" fill="black"/>
</g>
<defs>
<clipPath id="clip0_894_13508">
<rect width="15" height="15" fill="white" transform="translate(21.208 10.5703) rotate(134.805)"/>
</clipPath>
</defs>
</svg>
