<svg width="22" height="22" viewBox="0 0 22 22" fill="none" xmlns="http://www.w3.org/2000/svg">
<g clip-path="url(#clip0_894_13554)">
<path d="M18.5369 13.7631L21.3557 10.9251C21.4491 10.831 21.5014 10.7036 21.5009 10.571C21.5004 10.4384 21.4473 10.3114 21.3533 10.218L18.5152 7.3992C18.4451 7.32929 18.3558 7.28178 18.2586 7.2627C18.1614 7.24361 18.0608 7.2538 17.9694 7.29199C17.8781 7.33017 17.8001 7.39462 17.7454 7.47716C17.6907 7.55971 17.6618 7.65664 17.6622 7.75566L17.6709 10.0841L1.20032 10.1396L1.20374 11.1408L17.6743 11.084L17.6815 13.4125C17.6817 13.5115 17.7113 13.6082 17.7666 13.6904C17.8218 13.7726 17.9002 13.8365 17.9919 13.874C18.0835 13.9116 18.1842 13.9211 18.2812 13.9014C18.3783 13.8816 18.4672 13.8335 18.5369 13.7631Z" fill="black"/>
</g>
<defs>
<clipPath id="clip0_894_13554">
<rect width="15" height="15" fill="white" transform="translate(21.708 10.5703) rotate(134.805)"/>
</clipPath>
</defs>
</svg>
