<svg width="22" height="22" viewBox="0 0 22 22" fill="none" xmlns="http://www.w3.org/2000/svg">
<g clip-path="url(#clip0_894_13531)">
<path d="M18.5369 13.7729L21.3557 10.9348C21.4491 10.8407 21.5014 10.7134 21.5009 10.5808C21.5004 10.4482 21.4473 10.3212 21.3533 10.2277L18.5152 7.40896C18.4451 7.33906 18.3558 7.29155 18.2586 7.27246C18.1614 7.25338 18.0608 7.26357 17.9694 7.30175C17.8781 7.33993 17.8001 7.40438 17.7454 7.48693C17.6907 7.56948 17.6618 7.6664 17.6622 7.76542L17.6709 10.0939L1.20032 10.1493L1.20374 11.1506L17.6743 11.0938L17.6815 13.4222C17.6817 13.5213 17.7113 13.618 17.7666 13.7002C17.8218 13.7823 17.9002 13.8463 17.9919 13.8838C18.0835 13.9214 18.1842 13.9309 18.2812 13.9111C18.3783 13.8914 18.4672 13.8433 18.5369 13.7729Z" fill="black"/>
</g>
<defs>
<clipPath id="clip0_894_13531">
<rect width="15" height="15" fill="white" transform="translate(21.708 10.5703) rotate(134.805)"/>
</clipPath>
</defs>
</svg>
