<svg width="29" height="29" viewBox="0 0 29 29" fill="none" xmlns="http://www.w3.org/2000/svg">
<path d="M14.5238 3.51562C10.5243 3.51562 7.27385 6.76604 7.27385 10.7656V14.2577C7.27385 14.9948 6.95968 16.1185 6.5851 16.7469L5.19551 19.0548C4.3376 20.4806 4.92968 22.0635 6.50051 22.5952C11.7084 24.3352 17.3272 24.3352 22.5351 22.5952C23.9972 22.1119 24.6376 20.384 23.8401 19.0548L22.4505 16.7469C22.088 16.1185 21.7738 14.9948 21.7738 14.2577V10.7656C21.7738 6.77812 18.5113 3.51562 14.5238 3.51562Z" stroke="#999999" stroke-width="1.5" stroke-miterlimit="10" stroke-linecap="round"/>
<path d="M16.7599 3.86625C15.2987 3.45009 13.7503 3.45009 12.2891 3.86625C12.6395 2.97208 13.5095 2.34375 14.5245 2.34375C15.5395 2.34375 16.4095 2.97208 16.7599 3.86625Z" stroke="#999999" stroke-width="1.5" stroke-miterlimit="10" stroke-linecap="round" stroke-linejoin="round"/>
<path d="M18.1494 23.0312C18.1494 25.025 16.5182 26.6563 14.5244 26.6563C13.5336 26.6563 12.6152 26.2454 11.9627 25.5929C11.2839 24.913 10.9016 23.9921 10.8994 23.0312" stroke="#999999" stroke-width="1.5" stroke-miterlimit="10"/>
</svg>
