<svg width="18" height="18" viewBox="0 0 18 18" fill="none" xmlns="http://www.w3.org/2000/svg">
<path d="M15.8101 6.435V11.565C15.8101 12.405 15.3601 13.185 14.6326 13.6125L10.1776 16.185C9.45012 16.605 8.55012 16.605 7.81512 16.185L3.36012 13.6125C3.00145 13.4045 2.70382 13.1059 2.49713 12.7465C2.29044 12.3871 2.18197 11.9796 2.18262 11.565V6.435C2.18262 5.595 2.63262 4.815 3.36012 4.3875L7.81512 1.815C8.54262 1.395 9.44262 1.395 10.1776 1.815L14.6326 4.3875C15.3601 4.815 15.8101 5.5875 15.8101 6.435Z" stroke="#777777" stroke-width="1.5" stroke-linecap="round" stroke-linejoin="round"/>
<path d="M12 12.4959C12 11.1459 10.6575 10.0509 9 10.0509C7.3425 10.0509 6 11.1459 6 12.4959M9 8.25086C9.46347 8.25086 9.90795 8.06675 10.2357 7.73903C10.5634 7.41131 10.7475 6.96683 10.7475 6.50336C10.7475 6.03989 10.5634 5.59541 10.2357 5.26769C9.90795 4.93997 9.46347 4.75586 9 4.75586C8.53653 4.75586 8.09205 4.93997 7.76433 5.26769C7.43661 5.59541 7.2525 6.03989 7.2525 6.50336C7.2525 6.96683 7.43661 7.41131 7.76433 7.73903C8.09205 8.06675 8.53653 8.25086 9 8.25086Z" stroke="#777777" stroke-width="1.5" stroke-linecap="round" stroke-linejoin="round"/>
</svg>
