<svg width="13" height="15" viewBox="0 0 13 15" fill="none" xmlns="http://www.w3.org/2000/svg">
<path d="M13 6.92332V13.8462C13 14.1522 12.8755 14.4457 12.6539 14.6621C12.4322 14.8784 12.1316 15 11.8182 15H1.18182C0.86838 15 0.56778 14.8784 0.346146 14.6621C0.124513 14.4457 0 14.1522 0 13.8462V6.92332C0 6.61731 0.124513 6.32384 0.346146 6.10745C0.56778 5.89107 0.86838 5.76951 1.18182 5.76951H2.95455C3.11126 5.76951 3.26156 5.83029 3.37238 5.93848C3.4832 6.04667 3.54545 6.19341 3.54545 6.34642C3.54545 6.49942 3.4832 6.64616 3.37238 6.75435C3.26156 6.86254 3.11126 6.92332 2.95455 6.92332H1.18182V13.8462H11.8182V6.92332H10.0455C9.88873 6.92332 9.73843 6.86254 9.62762 6.75435C9.5168 6.64616 9.45455 6.49942 9.45455 6.34642C9.45455 6.19341 9.5168 6.04667 9.62762 5.93848C9.73843 5.83029 9.88873 5.76951 10.0455 5.76951H11.8182C12.1316 5.76951 12.4322 5.89107 12.6539 6.10745C12.8755 6.32384 13 6.61731 13 6.92332ZM3.96352 3.87005L5.90909 1.96987V8.65404C5.90909 8.80704 5.97135 8.95378 6.08216 9.06197C6.19298 9.17016 6.34328 9.23094 6.5 9.23094C6.65672 9.23094 6.80702 9.17016 6.91784 9.06197C7.02865 8.95378 7.09091 8.80704 7.09091 8.65404V1.96987L9.03648 3.87005C9.14736 3.9783 9.29774 4.03911 9.45455 4.03911C9.61135 4.03911 9.76173 3.9783 9.87261 3.87005C9.98349 3.7618 10.0458 3.61498 10.0458 3.46189C10.0458 3.3088 9.98349 3.16198 9.87261 3.05373L6.91807 0.169199C6.86319 0.11556 6.79802 0.0730081 6.72628 0.0439757C6.65455 0.0149433 6.57765 0 6.5 0C6.42235 0 6.34545 0.0149433 6.27372 0.0439757C6.20198 0.0730081 6.13681 0.11556 6.08193 0.169199L3.12739 3.05373C3.01651 3.16198 2.95422 3.3088 2.95422 3.46189C2.95422 3.61498 3.01651 3.7618 3.12739 3.87005C3.23827 3.9783 3.38865 4.03911 3.54545 4.03911C3.70226 4.03911 3.85264 3.9783 3.96352 3.87005Z" fill="#288EFC"/>
</svg>
