<svg width="79" height="7" viewBox="0 0 79 7" fill="none" xmlns="http://www.w3.org/2000/svg">
<path d="M1.02006 5.7C0.900059 5.62 0.840059 5.5 0.840059 5.34C0.840059 5.26 0.866725 5.18 0.920059 5.1C0.920059 5.08667 0.960059 5.04 1.04006 4.96L2.48006 3.64L0.520059 3.42L0.360059 3.38C0.253392 3.35333 0.173392 3.28 0.120059 3.16C0.0800586 3.09333 0.0600586 3.02 0.0600586 2.94C0.0600586 2.9 0.0667253 2.86 0.0800586 2.82L0.440059 1.76C0.466725 1.65333 0.540059 1.57333 0.660059 1.52C0.726725 1.48 0.800059 1.46 0.880059 1.46C0.906725 1.46 0.940059 1.46667 0.980059 1.48L1.14006 1.56L2.86006 2.54L2.46006 0.599999L2.44006 0.440001C2.44006 0.333334 2.48006 0.233333 2.56006 0.139999C2.65339 0.0466665 2.76006 0 2.88006 0H3.98006C4.10006 0 4.20006 0.0466665 4.28006 0.139999C4.37339 0.233333 4.42006 0.333334 4.42006 0.440001L4.40006 0.599999L4.00006 2.54L5.74006 1.56L5.90006 1.48C5.92673 1.46667 5.96006 1.46 6.00006 1.46C6.10673 1.46 6.20006 1.48667 6.28006 1.54C6.37339 1.59333 6.42673 1.66667 6.44006 1.76L6.80006 2.82L6.82006 2.94C6.82006 3.03333 6.78673 3.12667 6.72006 3.22C6.66673 3.3 6.59339 3.35333 6.50006 3.38L6.36006 3.42L4.38006 3.64L5.84006 4.96C5.92006 5.04 5.96006 5.08667 5.96006 5.1C6.01339 5.18 6.04006 5.26 6.04006 5.34C6.04006 5.5 5.98006 5.62 5.86006 5.7L4.98006 6.36C4.90006 6.4 4.81339 6.42 4.72006 6.42C4.54673 6.42 4.42673 6.36667 4.36006 6.26C4.36006 6.24667 4.35339 6.23333 4.34006 6.22C4.32673 6.20667 4.30673 6.17333 4.28006 6.12L3.44006 4.3L2.60006 6.12C2.57339 6.17333 2.55339 6.20667 2.54006 6.22C2.52673 6.23333 2.52006 6.24667 2.52006 6.26C2.45339 6.36667 2.33339 6.42 2.16006 6.42C2.06673 6.42 1.98006 6.4 1.90006 6.36L1.02006 5.7Z" fill="#222222"/>
<path d="M9.94584 5.7C9.82584 5.62 9.76584 5.5 9.76584 5.34C9.76584 5.26 9.79251 5.18 9.84584 5.1C9.84584 5.08667 9.88584 5.04 9.96584 4.96L11.4058 3.64L9.44584 3.42L9.28584 3.38C9.17917 3.35333 9.09917 3.28 9.04584 3.16C9.00584 3.09333 8.98584 3.02 8.98584 2.94C8.98584 2.9 8.99251 2.86 9.00584 2.82L9.36584 1.76C9.39251 1.65333 9.46584 1.57333 9.58584 1.52C9.65251 1.48 9.72584 1.46 9.80584 1.46C9.83251 1.46 9.86584 1.46667 9.90584 1.48L10.0658 1.56L11.7858 2.54L11.3858 0.599999L11.3658 0.440001C11.3658 0.333334 11.4058 0.233333 11.4858 0.139999C11.5792 0.0466665 11.6858 0 11.8058 0H12.9058C13.0258 0 13.1258 0.0466665 13.2058 0.139999C13.2992 0.233333 13.3458 0.333334 13.3458 0.440001L13.3258 0.599999L12.9258 2.54L14.6658 1.56L14.8258 1.48C14.8525 1.46667 14.8858 1.46 14.9258 1.46C15.0325 1.46 15.1258 1.48667 15.2058 1.54C15.2992 1.59333 15.3525 1.66667 15.3658 1.76L15.7258 2.82L15.7458 2.94C15.7458 3.03333 15.7125 3.12667 15.6458 3.22C15.5925 3.3 15.5192 3.35333 15.4258 3.38L15.2858 3.42L13.3058 3.64L14.7658 4.96C14.8458 5.04 14.8858 5.08667 14.8858 5.1C14.9392 5.18 14.9658 5.26 14.9658 5.34C14.9658 5.5 14.9058 5.62 14.7858 5.7L13.9058 6.36C13.8258 6.4 13.7392 6.42 13.6458 6.42C13.4725 6.42 13.3525 6.36667 13.2858 6.26C13.2858 6.24667 13.2792 6.23333 13.2658 6.22C13.2525 6.20667 13.2325 6.17333 13.2058 6.12L12.3658 4.3L11.5258 6.12C11.4992 6.17333 11.4792 6.20667 11.4658 6.22C11.4525 6.23333 11.4458 6.24667 11.4458 6.26C11.3792 6.36667 11.2592 6.42 11.0858 6.42C10.9925 6.42 10.9058 6.4 10.8258 6.36L9.94584 5.7Z" fill="#222222"/>
<path d="M18.8716 5.7C18.7516 5.62 18.6916 5.5 18.6916 5.34C18.6916 5.26 18.7183 5.18 18.7716 5.1C18.7716 5.08667 18.8116 5.04 18.8916 4.96L20.3316 3.64L18.3716 3.42L18.2116 3.38C18.105 3.35333 18.025 3.28 17.9716 3.16C17.9316 3.09333 17.9116 3.02 17.9116 2.94C17.9116 2.9 17.9183 2.86 17.9316 2.82L18.2916 1.76C18.3183 1.65333 18.3916 1.57333 18.5116 1.52C18.5783 1.48 18.6516 1.46 18.7316 1.46C18.7583 1.46 18.7916 1.46667 18.8316 1.48L18.9916 1.56L20.7116 2.54L20.3116 0.599999L20.2916 0.440001C20.2916 0.333334 20.3316 0.233333 20.4116 0.139999C20.505 0.0466665 20.6116 0 20.7316 0H21.8316C21.9516 0 22.0516 0.0466665 22.1316 0.139999C22.225 0.233333 22.2716 0.333334 22.2716 0.440001L22.2516 0.599999L21.8516 2.54L23.5916 1.56L23.7516 1.48C23.7783 1.46667 23.8116 1.46 23.8516 1.46C23.9583 1.46 24.0516 1.48667 24.1316 1.54C24.225 1.59333 24.2783 1.66667 24.2916 1.76L24.6516 2.82L24.6716 2.94C24.6716 3.03333 24.6383 3.12667 24.5716 3.22C24.5183 3.3 24.445 3.35333 24.3516 3.38L24.2116 3.42L22.2316 3.64L23.6916 4.96C23.7716 5.04 23.8116 5.08667 23.8116 5.1C23.865 5.18 23.8916 5.26 23.8916 5.34C23.8916 5.5 23.8316 5.62 23.7116 5.7L22.8316 6.36C22.7516 6.4 22.665 6.42 22.5716 6.42C22.3983 6.42 22.2783 6.36667 22.2116 6.26C22.2116 6.24667 22.205 6.23333 22.1916 6.22C22.1783 6.20667 22.1583 6.17333 22.1316 6.12L21.2916 4.3L20.4516 6.12C20.425 6.17333 20.405 6.20667 20.3916 6.22C20.3783 6.23333 20.3716 6.24667 20.3716 6.26C20.305 6.36667 20.185 6.42 20.0116 6.42C19.9183 6.42 19.8316 6.4 19.7516 6.36L18.8716 5.7Z" fill="#222222"/>
<path d="M27.7974 5.7C27.6774 5.62 27.6174 5.5 27.6174 5.34C27.6174 5.26 27.6441 5.18 27.6974 5.1C27.6974 5.08667 27.7374 5.04 27.8174 4.96L29.2574 3.64L27.2974 3.42L27.1374 3.38C27.0307 3.35333 26.9507 3.28 26.8974 3.16C26.8574 3.09333 26.8374 3.02 26.8374 2.94C26.8374 2.9 26.8441 2.86 26.8574 2.82L27.2174 1.76C27.2441 1.65333 27.3174 1.57333 27.4374 1.52C27.5041 1.48 27.5774 1.46 27.6574 1.46C27.6841 1.46 27.7174 1.46667 27.7574 1.48L27.9174 1.56L29.6374 2.54L29.2374 0.599999L29.2174 0.440001C29.2174 0.333334 29.2574 0.233333 29.3374 0.139999C29.4307 0.0466665 29.5374 0 29.6574 0H30.7574C30.8774 0 30.9774 0.0466665 31.0574 0.139999C31.1507 0.233333 31.1974 0.333334 31.1974 0.440001L31.1774 0.599999L30.7774 2.54L32.5174 1.56L32.6774 1.48C32.7041 1.46667 32.7374 1.46 32.7774 1.46C32.8841 1.46 32.9774 1.48667 33.0574 1.54C33.1507 1.59333 33.2041 1.66667 33.2174 1.76L33.5774 2.82L33.5974 2.94C33.5974 3.03333 33.5641 3.12667 33.4974 3.22C33.4441 3.3 33.3707 3.35333 33.2774 3.38L33.1374 3.42L31.1574 3.64L32.6174 4.96C32.6974 5.04 32.7374 5.08667 32.7374 5.1C32.7907 5.18 32.8174 5.26 32.8174 5.34C32.8174 5.5 32.7574 5.62 32.6374 5.7L31.7574 6.36C31.6774 6.4 31.5907 6.42 31.4974 6.42C31.3241 6.42 31.2041 6.36667 31.1374 6.26C31.1374 6.24667 31.1307 6.23333 31.1174 6.22C31.1041 6.20667 31.0841 6.17333 31.0574 6.12L30.2174 4.3L29.3774 6.12C29.3507 6.17333 29.3307 6.20667 29.3174 6.22C29.3041 6.23333 29.2974 6.24667 29.2974 6.26C29.2307 6.36667 29.1107 6.42 28.9374 6.42C28.8441 6.42 28.7574 6.4 28.6774 6.36L27.7974 5.7Z" fill="#222222"/>
<path d="M36.7232 5.7C36.6032 5.62 36.5432 5.5 36.5432 5.34C36.5432 5.26 36.5698 5.18 36.6232 5.1C36.6232 5.08667 36.6632 5.04 36.7432 4.96L38.1832 3.64L36.2232 3.42L36.0632 3.38C35.9565 3.35333 35.8765 3.28 35.8232 3.16C35.7832 3.09333 35.7632 3.02 35.7632 2.94C35.7632 2.9 35.7699 2.86 35.7832 2.82L36.1432 1.76C36.1698 1.65333 36.2432 1.57333 36.3632 1.52C36.4298 1.48 36.5032 1.46 36.5832 1.46C36.6098 1.46 36.6432 1.46667 36.6832 1.48L36.8432 1.56L38.5632 2.54L38.1632 0.599999L38.1432 0.440001C38.1432 0.333334 38.1832 0.233333 38.2632 0.139999C38.3565 0.0466665 38.4632 0 38.5832 0H39.6832C39.8032 0 39.9032 0.0466665 39.9832 0.139999C40.0765 0.233333 40.1232 0.333334 40.1232 0.440001L40.1032 0.599999L39.7032 2.54L41.4432 1.56L41.6032 1.48C41.6298 1.46667 41.6632 1.46 41.7032 1.46C41.8098 1.46 41.9032 1.48667 41.9832 1.54C42.0765 1.59333 42.1298 1.66667 42.1432 1.76L42.5032 2.82L42.5232 2.94C42.5232 3.03333 42.4898 3.12667 42.4232 3.22C42.3699 3.3 42.2965 3.35333 42.2032 3.38L42.0632 3.42L40.0832 3.64L41.5432 4.96C41.6232 5.04 41.6632 5.08667 41.6632 5.1C41.7165 5.18 41.7432 5.26 41.7432 5.34C41.7432 5.5 41.6832 5.62 41.5632 5.7L40.6832 6.36C40.6032 6.4 40.5165 6.42 40.4232 6.42C40.2499 6.42 40.1298 6.36667 40.0632 6.26C40.0632 6.24667 40.0565 6.23333 40.0432 6.22C40.0299 6.20667 40.0098 6.17333 39.9832 6.12L39.1432 4.3L38.3032 6.12C38.2765 6.17333 38.2565 6.20667 38.2432 6.22C38.2299 6.23333 38.2232 6.24667 38.2232 6.26C38.1565 6.36667 38.0365 6.42 37.8632 6.42C37.7698 6.42 37.6832 6.4 37.6032 6.36L36.7232 5.7Z" fill="#222222"/>
<path d="M45.649 5.7C45.529 5.62 45.469 5.5 45.469 5.34C45.469 5.26 45.4956 5.18 45.549 5.1C45.549 5.08667 45.589 5.04 45.669 4.96L47.109 3.64L45.149 3.42L44.989 3.38C44.8823 3.35333 44.8023 3.28 44.749 3.16C44.709 3.09333 44.689 3.02 44.689 2.94C44.689 2.9 44.6956 2.86 44.709 2.82L45.069 1.76C45.0956 1.65333 45.169 1.57333 45.289 1.52C45.3556 1.48 45.429 1.46 45.509 1.46C45.5356 1.46 45.569 1.46667 45.609 1.48L45.769 1.56L47.489 2.54L47.089 0.599999L47.069 0.440001C47.069 0.333334 47.109 0.233333 47.189 0.139999C47.2823 0.0466665 47.389 0 47.509 0H48.609C48.729 0 48.829 0.0466665 48.909 0.139999C49.0023 0.233333 49.049 0.333334 49.049 0.440001L49.029 0.599999L48.629 2.54L50.369 1.56L50.529 1.48C50.5556 1.46667 50.589 1.46 50.629 1.46C50.7356 1.46 50.829 1.48667 50.909 1.54C51.0023 1.59333 51.0556 1.66667 51.069 1.76L51.429 2.82L51.449 2.94C51.449 3.03333 51.4156 3.12667 51.349 3.22C51.2956 3.3 51.2223 3.35333 51.129 3.38L50.989 3.42L49.009 3.64L50.469 4.96C50.549 5.04 50.589 5.08667 50.589 5.1C50.6423 5.18 50.669 5.26 50.669 5.34C50.669 5.5 50.609 5.62 50.489 5.7L49.609 6.36C49.529 6.4 49.4423 6.42 49.349 6.42C49.1756 6.42 49.0556 6.36667 48.989 6.26C48.989 6.24667 48.9823 6.23333 48.969 6.22C48.9556 6.20667 48.9356 6.17333 48.909 6.12L48.069 4.3L47.229 6.12C47.2023 6.17333 47.1823 6.20667 47.169 6.22C47.1556 6.23333 47.149 6.24667 47.149 6.26C47.0823 6.36667 46.9623 6.42 46.789 6.42C46.6956 6.42 46.609 6.4 46.529 6.36L45.649 5.7Z" fill="#222222"/>
<path d="M54.5747 5.7C54.4547 5.62 54.3947 5.5 54.3947 5.34C54.3947 5.26 54.4214 5.18 54.4747 5.1C54.4747 5.08667 54.5147 5.04 54.5947 4.96L56.0347 3.64L54.0747 3.42L53.9147 3.38C53.8081 3.35333 53.7281 3.28 53.6747 3.16C53.6347 3.09333 53.6147 3.02 53.6147 2.94C53.6147 2.9 53.6214 2.86 53.6347 2.82L53.9947 1.76C54.0214 1.65333 54.0947 1.57333 54.2147 1.52C54.2814 1.48 54.3547 1.46 54.4347 1.46C54.4614 1.46 54.4947 1.46667 54.5347 1.48L54.6947 1.56L56.4147 2.54L56.0147 0.599999L55.9947 0.440001C55.9947 0.333334 56.0347 0.233333 56.1147 0.139999C56.2081 0.0466665 56.3147 0 56.4347 0H57.5347C57.6547 0 57.7547 0.0466665 57.8347 0.139999C57.9281 0.233333 57.9747 0.333334 57.9747 0.440001L57.9547 0.599999L57.5547 2.54L59.2947 1.56L59.4547 1.48C59.4814 1.46667 59.5147 1.46 59.5547 1.46C59.6614 1.46 59.7547 1.48667 59.8347 1.54C59.9281 1.59333 59.9814 1.66667 59.9947 1.76L60.3547 2.82L60.3747 2.94C60.3747 3.03333 60.3414 3.12667 60.2747 3.22C60.2214 3.3 60.1481 3.35333 60.0547 3.38L59.9147 3.42L57.9347 3.64L59.3947 4.96C59.4747 5.04 59.5147 5.08667 59.5147 5.1C59.5681 5.18 59.5947 5.26 59.5947 5.34C59.5947 5.5 59.5347 5.62 59.4147 5.7L58.5347 6.36C58.4547 6.4 58.3681 6.42 58.2747 6.42C58.1014 6.42 57.9814 6.36667 57.9147 6.26C57.9147 6.24667 57.9081 6.23333 57.8947 6.22C57.8814 6.20667 57.8614 6.17333 57.8347 6.12L56.9947 4.3L56.1547 6.12C56.1281 6.17333 56.1081 6.20667 56.0947 6.22C56.0814 6.23333 56.0747 6.24667 56.0747 6.26C56.0081 6.36667 55.8881 6.42 55.7147 6.42C55.6214 6.42 55.5347 6.4 55.4547 6.36L54.5747 5.7Z" fill="#222222"/>
<path d="M63.5005 5.7C63.3805 5.62 63.3205 5.5 63.3205 5.34C63.3205 5.26 63.3472 5.18 63.4005 5.1C63.4005 5.08667 63.4405 5.04 63.5205 4.96L64.9605 3.64L63.0005 3.42L62.8405 3.38C62.7339 3.35333 62.6539 3.28 62.6005 3.16C62.5605 3.09333 62.5405 3.02 62.5405 2.94C62.5405 2.9 62.5472 2.86 62.5605 2.82L62.9205 1.76C62.9472 1.65333 63.0205 1.57333 63.1405 1.52C63.2072 1.48 63.2805 1.46 63.3605 1.46C63.3872 1.46 63.4205 1.46667 63.4605 1.48L63.6205 1.56L65.3405 2.54L64.9405 0.599999L64.9205 0.440001C64.9205 0.333334 64.9605 0.233333 65.0405 0.139999C65.1339 0.0466665 65.2405 0 65.3605 0H66.4605C66.5805 0 66.6805 0.0466665 66.7605 0.139999C66.8539 0.233333 66.9005 0.333334 66.9005 0.440001L66.8805 0.599999L66.4805 2.54L68.2205 1.56L68.3805 1.48C68.4072 1.46667 68.4405 1.46 68.4805 1.46C68.5872 1.46 68.6805 1.48667 68.7605 1.54C68.8539 1.59333 68.9072 1.66667 68.9205 1.76L69.2805 2.82L69.3005 2.94C69.3005 3.03333 69.2672 3.12667 69.2005 3.22C69.1472 3.3 69.0739 3.35333 68.9805 3.38L68.8405 3.42L66.8605 3.64L68.3205 4.96C68.4005 5.04 68.4405 5.08667 68.4405 5.1C68.4939 5.18 68.5205 5.26 68.5205 5.34C68.5205 5.5 68.4605 5.62 68.3405 5.7L67.4605 6.36C67.3805 6.4 67.2939 6.42 67.2005 6.42C67.0272 6.42 66.9072 6.36667 66.8405 6.26C66.8405 6.24667 66.8339 6.23333 66.8205 6.22C66.8072 6.20667 66.7872 6.17333 66.7605 6.12L65.9205 4.3L65.0805 6.12C65.0539 6.17333 65.0339 6.20667 65.0205 6.22C65.0072 6.23333 65.0005 6.24667 65.0005 6.26C64.9339 6.36667 64.8139 6.42 64.6405 6.42C64.5472 6.42 64.4605 6.4 64.3805 6.36L63.5005 5.7Z" fill="#222222"/>
<path d="M72.4263 5.7C72.3063 5.62 72.2463 5.5 72.2463 5.34C72.2463 5.26 72.273 5.18 72.3263 5.1C72.3263 5.08667 72.3663 5.04 72.4463 4.96L73.8863 3.64L71.9263 3.42L71.7663 3.38C71.6596 3.35333 71.5797 3.28 71.5263 3.16C71.4863 3.09333 71.4663 3.02 71.4663 2.94C71.4663 2.9 71.473 2.86 71.4863 2.82L71.8463 1.76C71.873 1.65333 71.9463 1.57333 72.0663 1.52C72.133 1.48 72.2063 1.46 72.2863 1.46C72.313 1.46 72.3463 1.46667 72.3863 1.48L72.5463 1.56L74.2663 2.54L73.8663 0.599999L73.8463 0.440001C73.8463 0.333334 73.8863 0.233333 73.9663 0.139999C74.0596 0.0466665 74.1663 0 74.2863 0H75.3863C75.5063 0 75.6063 0.0466665 75.6863 0.139999C75.7796 0.233333 75.8263 0.333334 75.8263 0.440001L75.8063 0.599999L75.4063 2.54L77.1463 1.56L77.3063 1.48C77.333 1.46667 77.3663 1.46 77.4063 1.46C77.513 1.46 77.6063 1.48667 77.6863 1.54C77.7796 1.59333 77.833 1.66667 77.8463 1.76L78.2063 2.82L78.2263 2.94C78.2263 3.03333 78.193 3.12667 78.1263 3.22C78.073 3.3 77.9996 3.35333 77.9063 3.38L77.7663 3.42L75.7863 3.64L77.2463 4.96C77.3263 5.04 77.3663 5.08667 77.3663 5.1C77.4196 5.18 77.4463 5.26 77.4463 5.34C77.4463 5.5 77.3863 5.62 77.2663 5.7L76.3863 6.36C76.3063 6.4 76.2196 6.42 76.1263 6.42C75.953 6.42 75.833 6.36667 75.7663 6.26C75.7663 6.24667 75.7597 6.23333 75.7463 6.22C75.733 6.20667 75.713 6.17333 75.6863 6.12L74.8463 4.3L74.0063 6.12C73.9796 6.17333 73.9596 6.20667 73.9463 6.22C73.933 6.23333 73.9263 6.24667 73.9263 6.26C73.8596 6.36667 73.7396 6.42 73.5663 6.42C73.473 6.42 73.3863 6.4 73.3063 6.36L72.4263 5.7Z" fill="#222222"/>
</svg>
