<svg width="29" height="29" viewBox="0 0 29 29" fill="none" xmlns="http://www.w3.org/2000/svg">
<path d="M14.524 3.51562C10.5244 3.51562 7.27397 6.76604 7.27397 10.7656V14.2577C7.27397 14.9948 6.9598 16.1185 6.58522 16.7469L5.19563 19.0548C4.33772 20.4806 4.9298 22.0635 6.50063 22.5952C11.7086 24.3352 17.3273 24.3352 22.5352 22.5952C23.9973 22.1119 24.6377 20.384 23.8402 19.0548L22.4506 16.7469C22.0881 16.1185 21.774 14.9948 21.774 14.2577V10.7656C21.774 6.77812 18.5115 3.51562 14.524 3.51562Z" stroke="#999999" stroke-width="1.5" stroke-miterlimit="10" stroke-linecap="round"/>
<path d="M16.7599 3.86625C15.2987 3.45009 13.7503 3.45009 12.2891 3.86625C12.6395 2.97208 13.5095 2.34375 14.5245 2.34375C15.5395 2.34375 16.4095 2.97208 16.7599 3.86625Z" stroke="#999999" stroke-width="1.5" stroke-miterlimit="10" stroke-linecap="round" stroke-linejoin="round"/>
<path d="M18.1494 23.0312C18.1494 25.025 16.5182 26.6563 14.5244 26.6563C13.5336 26.6563 12.6152 26.2454 11.9627 25.5929C11.2839 24.913 10.9016 23.9921 10.8994 23.0312" stroke="#999999" stroke-width="1.5" stroke-miterlimit="10"/>
</svg>
