<svg width="1201" height="70" viewBox="0 0 1201 70" fill="none" xmlns="http://www.w3.org/2000/svg">
<rect width="1201" height="70" fill="white"/>
<path d="M40.8337 41.5053C40.8337 42.1011 40.3505 42.5832 39.7557 42.5832H31.0782C30.7924 42.5832 30.5182 42.4696 30.316 42.2675C30.1139 42.0653 30.0003 41.7911 30.0003 41.5053C30.0003 41.2194 30.1139 40.9452 30.316 40.743C30.5182 40.5409 30.7924 40.4273 31.0782 40.4273H39.7557C40.3516 40.4273 40.8337 40.9094 40.8337 41.5053ZM40.8337 34.9998C40.8337 35.5957 40.3505 36.0778 39.7557 36.0778H20.2449C19.959 36.0778 19.6849 35.9642 19.4827 35.762C19.2806 35.5599 19.167 35.2857 19.167 34.9998C19.167 34.714 19.2806 34.4398 19.4827 34.2376C19.6849 34.0355 19.959 33.9219 20.2449 33.9219H39.7557C40.3516 33.9219 40.8337 34.4051 40.8337 34.9998ZM39.7557 29.5723C40.0416 29.5723 40.3158 29.4588 40.5179 29.2566C40.7201 29.0545 40.8337 28.7803 40.8337 28.4944C40.8337 28.2085 40.7201 27.9344 40.5179 27.7322C40.3158 27.5301 40.0416 27.4165 39.7557 27.4165H26.7449C26.6034 27.4165 26.4632 27.4444 26.3324 27.4986C26.2016 27.5527 26.0828 27.6321 25.9827 27.7322C25.8826 27.8323 25.8032 27.9511 25.749 28.0819C25.6949 28.2127 25.667 28.3529 25.667 28.4944C25.667 28.636 25.6949 28.7761 25.749 28.9069C25.8032 29.0377 25.8826 29.1565 25.9827 29.2566C26.0828 29.3567 26.2016 29.4361 26.3324 29.4903C26.4632 29.5445 26.6034 29.5723 26.7449 29.5723H39.7557Z" fill="#5B5B5B"/>
</svg>
