<svg width="18" height="18" viewBox="0 0 18 18" fill="none" xmlns="http://www.w3.org/2000/svg">
<path d="M0.75 16.5H17.25M14.835 16.5075V13.1625M1.575 16.5V4.52251C1.575 3.01501 2.325 2.25751 3.8175 2.25751H8.49C9.9825 2.25751 10.725 3.01501 10.725 4.52251V16.5M4.35 6.18751H8.0625M4.35 9.00001H8.0625M6.1875 16.5V13.6875M14.85 8.16751C13.935 8.16751 13.2 8.90251 13.2 9.81751V11.52C13.2 12.435 13.935 13.17 14.85 13.17C15.765 13.17 16.5 12.435 16.5 11.52V9.81751C16.5 8.90251 15.765 8.16751 14.85 8.16751Z" stroke="#777777" stroke-width="1.5" stroke-miterlimit="10" stroke-linecap="round" stroke-linejoin="round"/>
</svg>
