<svg width="20" height="20" viewBox="0 0 20 20" fill="none" xmlns="http://www.w3.org/2000/svg">
<path d="M3.45229 18.4977C3.16003 18.3294 2.9178 18.0863 2.75045 17.7935C2.5831 17.5006 2.49664 17.1686 2.49995 16.8313L2.49995 3.16724C2.49664 2.82998 2.5831 2.4979 2.75045 2.20507C2.9178 1.91224 3.16003 1.66918 3.45229 1.50084C3.73345 1.33657 4.05323 1.25 4.37886 1.25C4.70449 1.25 5.02426 1.33657 5.30542 1.50084L17.1703 8.33131C17.4609 8.50203 17.702 8.74576 17.8694 9.03833C18.0369 9.3309 18.125 9.66216 18.125 9.99928C18.125 10.3364 18.0369 10.6676 17.8694 10.9602C17.702 11.2528 17.4609 11.4965 17.1703 11.6672L5.30542 18.4993C5.02412 18.6633 4.70427 18.7496 4.37864 18.7493C4.05302 18.7491 3.73331 18.6622 3.45229 18.4977Z" fill="#777777"/>
</svg>
