<svg width="20" height="20" viewBox="0 0 20 20" fill="none" xmlns="http://www.w3.org/2000/svg">
<path d="M1.50229 3.45229C1.67064 3.16003 1.91369 2.9178 2.20652 2.75045C2.49935 2.5831 2.83143 2.49664 3.16869 2.49995L16.8328 2.49995C17.17 2.49664 17.5021 2.5831 17.7949 2.75045C18.0878 2.9178 18.3308 3.16003 18.4992 3.45229C18.6634 3.73345 18.75 4.05323 18.75 4.37886C18.75 4.70449 18.6634 5.02426 18.4992 5.30542L11.6687 17.1703C11.498 17.4609 11.2542 17.702 10.9617 17.8694C10.6691 18.0369 10.3378 18.125 10.0007 18.125C9.66361 18.125 9.33235 18.0369 9.03978 17.8694C8.74721 17.702 8.50348 17.4609 8.33276 17.1703L1.50072 5.30542C1.33669 5.02412 1.25039 4.70427 1.25067 4.37864C1.25094 4.05302 1.33778 3.73331 1.50229 3.45229Z" fill="#777777"/>
</svg>
