<svg width="18" height="18" viewBox="0 0 18 18" fill="none" xmlns="http://www.w3.org/2000/svg">
<path d="M12.3075 3.00054C13.7625 3.00054 14.9325 4.17804 14.9325 5.62554C14.9325 7.04304 13.8075 8.19804 12.405 8.25054C12.3403 8.24304 12.2748 8.24304 12.21 8.25054M13.755 15.0005C14.295 14.888 14.805 14.6705 15.225 14.348C16.395 13.4705 16.395 12.023 15.225 11.1455C14.8125 10.8305 14.31 10.6205 13.7775 10.5005M6.87004 8.15304C6.79504 8.14554 6.70504 8.14554 6.62254 8.15304C5.76169 8.12381 4.94602 7.76067 4.34826 7.14051C3.7505 6.52035 3.41759 5.69188 3.42004 4.83054C3.42004 2.99304 4.90504 1.50054 6.75004 1.50054C7.63222 1.48463 8.48458 1.81981 9.11963 2.43235C9.75467 3.04489 10.1204 3.88462 10.1363 4.76679C10.1522 5.64897 9.81702 6.50133 9.20448 7.13638C8.59194 7.77142 7.75222 8.13713 6.87004 8.15304ZM3.12004 10.9205C1.30504 12.1355 1.30504 14.1155 3.12004 15.323C5.18254 16.703 8.56504 16.703 10.6275 15.323C12.4425 14.108 12.4425 12.128 10.6275 10.9205C8.57254 9.54804 5.19004 9.54804 3.12004 10.9205Z" stroke="#5B5B5B" stroke-width="1.5" stroke-linecap="round" stroke-linejoin="round"/>
</svg>
