<svg width="17" height="17" viewBox="0 0 17 17" fill="none" xmlns="http://www.w3.org/2000/svg">
<path d="M11.0355 8.4997C11.0355 9.9022 9.9022 11.0355 8.4997 11.0355C7.0972 11.0355 5.96387 9.9022 5.96387 8.4997C5.96387 7.0972 7.0972 5.96387 8.4997 5.96387C9.9022 5.96387 11.0355 7.0972 11.0355 8.4997Z" stroke="#777777" stroke-width="1.5" stroke-linecap="round" stroke-linejoin="round"/>
<path d="M8.50038 14.3577C11.0008 14.3577 13.3312 12.8843 14.9533 10.3343C15.5908 9.3356 15.5908 7.65685 14.9533 6.6581C13.3312 4.1081 11.0008 2.63477 8.50038 2.63477C5.99996 2.63477 3.66954 4.1081 2.04746 6.6581C1.40996 7.65685 1.40996 9.3356 2.04746 10.3343C3.66954 12.8843 5.99996 14.3577 8.50038 14.3577Z" stroke="#777777" stroke-width="1.5" stroke-linecap="round" stroke-linejoin="round"/>
</svg>
