<svg width="1201" height="70" viewBox="0 0 1201 70" fill="none" xmlns="http://www.w3.org/2000/svg">
<rect width="1201" height="70" fill="white"/>
<path d="M40.8337 41.5054C40.8337 42.1012 40.3505 42.5833 39.7557 42.5833H31.0782C30.7924 42.5833 30.5182 42.4697 30.316 42.2676C30.1139 42.0654 30.0003 41.7913 30.0003 41.5054C30.0003 41.2195 30.1139 40.9453 30.316 40.7432C30.5182 40.541 30.7924 40.4275 31.0782 40.4275H39.7557C40.3516 40.4275 40.8337 40.9095 40.8337 41.5054ZM40.8337 35C40.8337 35.5958 40.3505 36.0779 39.7557 36.0779H20.2449C19.959 36.0779 19.6849 35.9643 19.4827 35.7622C19.2806 35.56 19.167 35.2858 19.167 35C19.167 34.7141 19.2806 34.4399 19.4827 34.2378C19.6849 34.0356 19.959 33.922 20.2449 33.922H39.7557C40.3516 33.922 40.8337 34.4052 40.8337 35ZM39.7557 29.5725C40.0416 29.5725 40.3158 29.4589 40.5179 29.2567C40.7201 29.0546 40.8337 28.7804 40.8337 28.4945C40.8337 28.2087 40.7201 27.9345 40.5179 27.7323C40.3158 27.5302 40.0416 27.4166 39.7557 27.4166H26.7449C26.6034 27.4166 26.4632 27.4445 26.3324 27.4987C26.2016 27.5528 26.0828 27.6322 25.9827 27.7323C25.8826 27.8324 25.8032 27.9513 25.749 28.082C25.6949 28.2128 25.667 28.353 25.667 28.4945C25.667 28.6361 25.6949 28.7763 25.749 28.907C25.8032 29.0378 25.8826 29.1567 25.9827 29.2567C26.0828 29.3568 26.2016 29.4362 26.3324 29.4904C26.4632 29.5446 26.6034 29.5725 26.7449 29.5725H39.7557Z" fill="#5B5B5B"/>
</svg>
