<svg width="22" height="18" viewBox="0 0 22 18" fill="none" xmlns="http://www.w3.org/2000/svg">
<path d="M19.9814 0.932129H2.50137C1.96709 0.93371 1.45513 1.14659 1.07724 1.52429C0.699351 1.90199 0.486221 2.41385 0.484375 2.94813V15.0481C0.485166 15.5831 0.697829 16.096 1.07583 16.4746C1.45384 16.8531 1.9664 17.0665 2.50137 17.0681H19.9814C20.5163 17.0665 21.0289 16.8531 21.4069 16.4746C21.7849 16.096 21.9976 15.5831 21.9984 15.0481V2.94813C21.9965 2.41385 21.7834 1.90199 21.4055 1.52429C21.0276 1.14659 20.5157 0.93371 19.9814 0.932129ZM2.50137 2.27713H19.9814C20.1589 2.27946 20.3284 2.35101 20.454 2.47653C20.5795 2.60205 20.651 2.77163 20.6534 2.94913V4.96613H1.82837V2.94813C1.83071 2.77063 1.90225 2.60105 2.02778 2.47553C2.1533 2.35001 2.32287 2.27846 2.50037 2.27613L2.50137 2.27713ZM19.9814 15.7241H2.50137C2.32387 15.7218 2.1543 15.6502 2.02878 15.5247C1.90325 15.3992 1.83171 15.2296 1.82937 15.0521V9.00013H20.6534V15.0481C20.651 15.2256 20.5795 15.3952 20.454 15.5207C20.3284 15.6462 20.1589 15.7178 19.9814 15.7201V15.7241ZM3.17338 11.6891H4.51337V14.3781H3.17338V11.6891ZM5.86237 11.6891H7.20737V14.3781H5.86237V11.6891ZM8.55137 11.6891H9.89637V14.3781H8.55237L8.55137 11.6891Z" fill="#999999"/>
</svg>
