<svg width="22" height="17" viewBox="0 0 22 17" fill="none" xmlns="http://www.w3.org/2000/svg">
<path d="M19.5048 0H2.02481C1.49053 0.00158144 0.978568 0.214457 0.600678 0.59216C0.222788 0.969862 0.00965889 1.48172 0.0078125 2.016V14.116C0.00860349 14.651 0.221267 15.1639 0.599271 15.5424C0.977274 15.921 1.48984 16.1344 2.02481 16.136H19.5048C20.0398 16.1344 20.5524 15.921 20.9304 15.5424C21.3084 15.1639 21.521 14.651 21.5218 14.116V2.016C21.52 1.48172 21.3068 0.969862 20.9289 0.59216C20.5511 0.214457 20.0391 0.00158144 19.5048 0ZM2.02481 1.345H19.5048C19.6823 1.34733 19.8519 1.41888 19.9774 1.5444C20.1029 1.66992 20.1745 1.8395 20.1768 2.017V4.034H1.35181V2.016C1.35414 1.8385 1.42569 1.66892 1.55121 1.5434C1.67674 1.41788 1.84631 1.34633 2.02381 1.344L2.02481 1.345ZM19.5048 14.792H2.02481C1.84731 14.7897 1.67774 14.7181 1.55221 14.5926C1.42669 14.4671 1.35514 14.2975 1.35281 14.12V8.068H20.1768V14.116C20.1745 14.2935 20.1029 14.4631 19.9774 14.5886C19.8519 14.7141 19.6823 14.7857 19.5048 14.788V14.792ZM2.69681 10.757H4.03681V13.446H2.69681V10.757ZM5.38581 10.757H6.73081V13.446H5.38581V10.757ZM8.07481 10.757H9.41981V13.446H8.07581L8.07481 10.757Z" fill="#999999"/>
</svg>
