<svg width="13" height="15" viewBox="0 0 13 15" fill="none" xmlns="http://www.w3.org/2000/svg">
<path d="M9.29119 0.976013C9.71893 1.03901 10.15 1.08901 10.5733 1.17001C10.9966 1.25101 11.3998 1.36201 11.8119 1.46501C11.9111 1.49001 12.0057 1.53001 12.1227 1.57101C11.8999 2.49601 11.6838 3.41101 11.4655 4.32701C10.9643 4.18501 10.4853 4.02701 9.99072 3.91601C9.11286 3.69076 8.1856 3.66977 7.29622 3.85501C6.96263 3.94057 6.65417 4.09115 6.39285 4.29601C6.29306 4.36557 6.21204 4.45444 6.15581 4.55601C6.09958 4.65758 6.0696 4.76922 6.0681 4.88264C6.06661 4.99605 6.09363 5.10831 6.14715 5.21104C6.20068 5.31378 6.27933 5.40435 6.37726 5.47601C6.66776 5.71268 6.9864 5.91993 7.32741 6.09401C7.99574 6.44901 8.69749 6.75301 9.35691 7.12001C10.269 7.56033 10.9565 8.29972 11.2761 9.18401C11.5044 9.97111 11.461 10.8019 11.1517 11.5663C10.8424 12.3308 10.2818 12.9929 9.54405 13.465C8.58204 14.0725 7.46411 14.451 6.29483 14.565C4.46886 14.7827 2.6115 14.6153 0.870195 14.076C0.772172 14.046 0.67749 14.006 0.552734 13.961C0.775512 13.001 1.0072 12.049 1.23889 11.074C1.38815 11.132 1.51625 11.174 1.64101 11.231C2.71859 11.6922 3.90045 11.9232 5.09406 11.906C5.64661 11.9165 6.19382 11.8071 6.68915 11.587C6.89218 11.5223 7.07084 11.4076 7.20471 11.2561C7.33858 11.1045 7.42226 10.9222 7.4462 10.73C7.47013 10.5377 7.43335 10.3433 7.34005 10.169C7.24676 9.99465 7.10072 9.84738 6.91861 9.74401C6.51383 9.47155 6.08119 9.23416 5.6265 9.03501C4.86997 8.70991 4.15572 8.31083 3.49674 7.84501C2.73988 7.29391 2.25247 6.49939 2.13826 5.63055C2.02404 4.7617 2.29205 3.88715 2.88522 3.19301C3.70664 2.1788 4.92299 1.47913 6.29261 1.23301C6.73036 1.13301 7.18372 1.09701 7.62927 1.03301C7.69611 1.02301 7.7596 1.00201 7.82532 0.987015L9.29119 0.976013Z" fill="#0052CC"/>
</svg>
