<svg width="16" height="14" viewBox="0 0 16 14" fill="none" xmlns="http://www.w3.org/2000/svg">
<path d="M15.7077 13.9876H11.6948C11.5675 13.4888 11.4401 12.99 11.3128 12.4901C11.1701 11.9023 11.1739 11.9023 10.4417 11.9023C8.91341 11.9023 7.38517 11.9023 5.85693 11.9023C5.77111 11.8916 5.68364 11.9088 5.61255 11.9501C5.54146 11.9915 5.49218 12.054 5.47487 12.1247C5.24436 12.6903 4.99856 13.2505 4.74258 13.8086C4.70692 13.887 4.57957 13.9918 4.48787 13.9918C3.03986 14.0035 1.59313 13.9993 0.113281 13.9993C0.150214 13.9113 0.17441 13.8425 0.208795 13.7758C2.3373 9.54732 4.46707 5.31849 6.59812 1.08932C6.74215 0.758287 7.00965 0.474204 7.36156 0.278535C7.71347 0.0828661 8.13137 -0.0141424 8.55427 0.00166631H12.1928L15.7077 13.9876ZM10.4467 9.04921C10.0074 7.29858 9.5782 5.58291 9.14774 3.86829L9.08152 3.85982L6.82099 9.04921H10.4467Z" fill="#0052CC"/>
</svg>
