<svg width="12" height="16" viewBox="0 0 12 16" fill="none" xmlns="http://www.w3.org/2000/svg">
<path d="M9.06325 0C9.50688 0.0736756 9.95398 0.132149 10.393 0.226874C10.832 0.3216 11.2502 0.45141 11.6777 0.571863C11.7805 0.6011 11.8787 0.647879 12 0.695827C11.7689 1.77757 11.5448 2.84762 11.3184 3.91884C10.7985 3.75278 10.3017 3.56801 9.78877 3.4382C8.87829 3.17477 7.91657 3.15022 6.99413 3.36686C6.64814 3.46691 6.32822 3.643 6.05719 3.88259C5.95369 3.96393 5.86965 4.06786 5.81133 4.18664C5.75301 4.30542 5.72192 4.43599 5.72037 4.56862C5.71881 4.70125 5.74684 4.83253 5.80235 4.95267C5.85787 5.07282 5.93945 5.17874 6.04101 5.26254C6.34231 5.53932 6.67279 5.78168 7.02648 5.98527C7.71965 6.40042 8.44748 6.75594 9.13141 7.18513C10.0774 7.70006 10.7905 8.56474 11.122 9.59888C11.3587 10.5194 11.3137 11.4909 10.9929 12.3849C10.6721 13.2789 10.0907 14.0532 9.3255 14.6053C8.32774 15.3157 7.16825 15.7583 5.95552 15.8917C4.06168 16.1463 2.13529 15.9505 0.32926 15.3199C0.227594 15.2848 0.129393 15.238 0 15.1854C0.231058 14.0627 0.47136 12.9494 0.71166 11.8092C0.866469 11.877 0.999327 11.9261 1.12872 11.9928C2.24636 12.5321 3.47214 12.8022 4.71012 12.7821C5.28321 12.7944 5.85076 12.6665 6.36449 12.4091C6.57507 12.3334 6.76037 12.1993 6.89922 12.022C7.03806 11.8448 7.12486 11.6316 7.14968 11.4068C7.1745 11.182 7.13635 10.9547 7.03959 10.7508C6.94283 10.5469 6.79136 10.3747 6.60248 10.2538C6.18266 9.93515 5.73394 9.65752 5.26235 9.42463C4.47769 9.04444 3.7369 8.57773 3.05343 8.03298C2.26844 7.3885 1.76291 6.45934 1.64445 5.44326C1.526 4.42719 1.80396 3.40444 2.41918 2.59268C3.27113 1.40661 4.53269 0.588369 5.95321 0.30055C6.40724 0.183604 6.87744 0.141505 7.33956 0.0666602C7.40888 0.0549657 7.47473 0.0304077 7.54289 0.0128659L9.06325 0Z" fill="#0052CC"/>
</svg>
