<svg width="32" height="21" viewBox="0 0 32 21" fill="none" xmlns="http://www.w3.org/2000/svg">
<path d="M30.1707 8.6738V5.93405H1.82756V8.6738H30.1707ZM30.1707 10.5H1.82756V17.3485C1.82756 17.8328 2.02019 18.2973 2.36309 18.6398C2.70599 18.9823 3.17107 19.1747 3.65601 19.1747H28.3413C28.8263 19.1747 29.2913 18.9823 29.6342 18.6398C29.9771 18.2973 30.1698 17.8328 30.1698 17.3485L30.1707 10.5ZM30.1707 4.10784V3.65152C30.1707 3.16718 29.978 2.70267 29.6351 2.36019C29.2922 2.01771 28.8272 1.82531 28.3422 1.82531H3.65601C3.17107 1.82531 2.70599 2.01771 2.36309 2.36019C2.02019 2.70267 1.82756 3.16718 1.82756 3.65152V4.10784H30.1707ZM3.65601 4.31852e-07H28.3413C28.8216 -0.0002328 29.2971 0.0940077 29.7409 0.277343C30.1847 0.460678 30.5879 0.72952 30.9277 1.06851C31.2674 1.4075 31.537 1.81001 31.721 2.25305C31.905 2.69609 31.9998 3.17099 32 3.65063V17.3476C32 18.3163 31.6147 19.2453 30.9289 19.9302C30.2431 20.6152 29.313 21 28.3431 21H3.65601C2.68645 20.9998 1.75665 20.615 1.07107 19.9302C0.38549 19.2455 0.000235645 18.3168 0 17.3485V3.65063C0.000471243 2.68241 0.385841 1.754 1.0714 1.06945C1.75695 0.384898 2.6866 0.000235664 3.65601 4.31852e-07ZM5.02756 17.8066C4.9051 17.8104 4.78312 17.7896 4.66886 17.7454C4.55461 17.7013 4.45041 17.6346 4.36244 17.5494C4.27447 17.4643 4.20452 17.3623 4.15675 17.2497C4.10899 17.137 4.08438 17.0158 4.08438 16.8935C4.08438 16.7711 4.10899 16.65 4.15675 16.5373C4.20452 16.4246 4.27447 16.3227 4.36244 16.2375C4.45041 16.1524 4.55461 16.0857 4.66886 16.0415C4.78312 15.9974 4.9051 15.9766 5.02756 15.9804H9.6C9.83753 15.9878 10.0629 16.0872 10.2283 16.2577C10.3937 16.4281 10.4862 16.6561 10.4862 16.8935C10.4862 17.1308 10.3937 17.3589 10.2283 17.5293C10.0629 17.6997 9.83753 17.7992 9.6 17.8066H5.02756ZM13.256 17.8066C13.0185 17.7992 12.7931 17.6997 12.6277 17.5293C12.4623 17.3589 12.3698 17.1308 12.3698 16.8935C12.3698 16.6561 12.4623 16.4281 12.6277 16.2577C12.7931 16.0872 13.0185 15.9878 13.256 15.9804H17.8276C17.95 15.9766 18.072 15.9974 18.1862 16.0415C18.3005 16.0857 18.4047 16.1524 18.4927 16.2375C18.5806 16.3227 18.6506 16.4246 18.6984 16.5373C18.7461 16.65 18.7707 16.7711 18.7707 16.8935C18.7707 17.0158 18.7461 17.137 18.6984 17.2497C18.6506 17.3623 18.5806 17.4643 18.4927 17.5494C18.4047 17.6346 18.3005 17.7013 18.1862 17.7454C18.072 17.7896 17.95 17.8104 17.8276 17.8066H13.256Z" fill="#999999"/>
</svg>
