<svg width="12" height="15" viewBox="0 0 12 15" fill="none" xmlns="http://www.w3.org/2000/svg">
<path d="M8.668 0.976013C9.052 1.03901 9.439 1.08901 9.819 1.17001C10.199 1.25101 10.561 1.36201 10.931 1.46501C11.02 1.49001 11.105 1.53001 11.21 1.57101C11.01 2.49601 10.816 3.41101 10.62 4.32701C10.17 4.18501 9.74 4.02701 9.296 3.91601C8.5079 3.69076 7.67545 3.66977 6.877 3.85501C6.57752 3.94057 6.3006 4.09115 6.066 4.29601C5.97641 4.36557 5.90367 4.45444 5.85319 4.55601C5.80271 4.65758 5.7758 4.76922 5.77445 4.88264C5.77311 4.99605 5.79736 5.10831 5.84542 5.21104C5.89347 5.31378 5.96409 5.40435 6.052 5.47601C6.3128 5.71268 6.59886 5.91993 6.905 6.09401C7.505 6.44901 8.135 6.75301 8.727 7.12001C9.5458 7.56033 10.163 8.29972 10.45 9.18401C10.6549 9.97111 10.616 10.8019 10.3383 11.5663C10.0606 12.3308 9.5573 12.9929 8.895 13.465C8.03135 14.0725 7.02772 14.451 5.978 14.565C4.33872 14.7827 2.67127 14.6153 1.108 14.076C1.02 14.046 0.934998 14.006 0.822998 13.961C1.023 13.001 1.231 12.049 1.439 11.074C1.573 11.132 1.688 11.174 1.8 11.231C2.76741 11.6922 3.82843 11.9232 4.9 11.906C5.39606 11.9165 5.88731 11.8071 6.332 11.587C6.51427 11.5223 6.67466 11.4076 6.79485 11.2561C6.91503 11.1045 6.99016 10.9222 7.01164 10.73C7.03313 10.5377 7.00011 10.3433 6.91635 10.169C6.8326 9.99465 6.70148 9.84738 6.538 9.74401C6.17461 9.47155 5.7862 9.23416 5.378 9.03501C4.69882 8.70991 4.0576 8.31083 3.466 7.84501C2.78652 7.29391 2.34895 6.49939 2.24641 5.63055C2.14387 4.7617 2.38447 3.88715 2.917 3.19301C3.65443 2.1788 4.74642 1.47913 5.976 1.23301C6.369 1.13301 6.776 1.09701 7.176 1.03301C7.236 1.02301 7.293 1.00201 7.352 0.987015L8.668 0.976013Z" fill="#0052CC"/>
</svg>
