<svg width="14" height="14" viewBox="0 0 14 14" fill="none" xmlns="http://www.w3.org/2000/svg">
<path d="M14 13.9876H10.3974C10.2831 13.4888 10.1687 12.99 10.0544 12.4901C9.92634 11.9023 9.92977 11.9023 9.27236 11.9023C7.90037 11.9023 6.52838 11.9023 5.15639 11.9023C5.07934 11.8916 5.00082 11.9088 4.937 11.9501C4.87318 11.9915 4.82894 12.054 4.81339 12.1247C4.60645 12.6903 4.38579 13.2505 4.15598 13.8086C4.12397 13.887 4.00963 13.9918 3.92731 13.9918C2.62736 14.0035 1.32854 13.9993 0 13.9993C0.0331564 13.9113 0.0548782 13.8425 0.085748 13.7758C1.99662 9.54732 3.90864 5.31849 5.8218 1.08932C5.95111 0.758287 6.19125 0.474204 6.50718 0.278535C6.82311 0.0828661 7.19829 -0.0141424 7.57795 0.00166631H10.8444L14 13.9876ZM9.27693 9.04921C8.88248 7.29858 8.49718 5.58291 8.11074 3.86829L8.05129 3.85982L6.02188 9.04921H9.27693Z" fill="#0052CC"/>
</svg>
