<svg width="13" height="14" viewBox="0 0 13 14" fill="none" xmlns="http://www.w3.org/2000/svg">
<path d="M12.673 13.434H9.52198C9.42198 12.963 9.32198 12.492 9.22198 12.02C9.10998 11.465 9.11298 11.465 8.53798 11.465C7.33798 11.465 6.13798 11.465 4.93798 11.465C4.87059 11.4549 4.80191 11.4711 4.74609 11.5102C4.69027 11.5492 4.65157 11.6082 4.63798 11.675C4.45698 12.209 4.26398 12.738 4.06298 13.265C4.03498 13.339 3.93498 13.438 3.86298 13.438C2.72598 13.449 1.58998 13.445 0.427979 13.445C0.456979 13.362 0.475977 13.297 0.502977 13.234C2.17431 9.24135 3.84664 5.24835 5.51998 1.25501C5.63307 0.942441 5.84311 0.6742 6.11944 0.489443C6.39576 0.304685 6.72391 0.213087 7.05598 0.228014H9.91298L12.673 13.434ZM8.54198 8.77101C8.19698 7.11801 7.85998 5.49801 7.52198 3.87901L7.46998 3.87101L5.69498 8.77101H8.54198Z" fill="#0052CC"/>
</svg>
