<svg width="34" height="34" viewBox="0 0 34 34" fill="none" xmlns="http://www.w3.org/2000/svg">
<path d="M15.9075 34C11.5026 33.716 7.38069 31.7281 4.4136 28.4567C1.44652 25.1852 -0.133112 20.8868 0.00879682 16.4705C0.150706 12.0542 2.00303 7.86623 5.174 4.79244C8.34498 1.71864 12.586 0 17 0C21.414 0 25.655 1.71864 28.826 4.79244C31.997 7.86623 33.8493 12.0542 33.9912 16.4705C34.1331 20.8868 32.5535 25.1852 29.5864 28.4567C26.6193 31.7281 22.4974 33.716 18.0925 34V20.0575C18.7639 19.8017 19.3245 19.3185 19.6769 18.6918C20.0293 18.0652 20.1511 17.3347 20.0212 16.6275C19.8914 15.9202 19.518 15.2809 18.966 14.8207C18.414 14.3604 17.7184 14.1084 17 14.1084C16.2816 14.1084 15.586 14.3604 15.034 14.8207C14.482 15.2809 14.1086 15.9202 13.9788 16.6275C13.8489 17.3347 13.9707 18.0652 14.3231 18.6918C14.6755 19.3185 15.2361 19.8017 15.9075 20.0575" fill="#1166DD"/>
</svg>
