<svg width="15" height="16" viewBox="0 0 15 16" fill="none" xmlns="http://www.w3.org/2000/svg">
<path d="M10.9568 0C11.4509 0.0736756 11.949 0.132149 12.438 0.226874C12.927 0.3216 13.3928 0.45141 13.869 0.571863C13.9835 0.6011 14.0929 0.647879 14.228 0.695827C13.9706 1.77757 13.721 2.84762 13.4687 3.91884C12.8897 3.75278 12.3363 3.56801 11.7649 3.4382C10.7508 3.17477 9.6795 3.15022 8.65201 3.36686C8.26662 3.46691 7.91026 3.643 7.60836 3.88259C7.49307 3.96393 7.39946 4.06786 7.3345 4.18664C7.26955 4.30542 7.23491 4.43599 7.23318 4.56862C7.23145 4.70125 7.26267 4.83253 7.32451 4.95267C7.38634 5.07282 7.47721 5.17874 7.59034 5.26254C7.92596 5.53932 8.29408 5.78168 8.68804 5.98527C9.46016 6.40042 10.2709 6.75594 11.0327 7.18513C12.0864 7.70006 12.8807 8.56474 13.25 9.59888C13.5137 10.5194 13.4635 11.4909 13.1062 12.3849C12.7489 13.2789 12.1012 14.0532 11.2489 14.6053C10.1375 15.3157 8.84597 15.7583 7.49512 15.8917C5.38559 16.1463 3.2398 15.9505 1.22809 15.3199C1.11484 15.2848 1.00546 15.238 0.861328 15.1854C1.1187 14.0627 1.38637 12.9494 1.65404 11.8092C1.82648 11.877 1.97447 11.9261 2.1186 11.9928C3.36352 12.5321 4.72891 12.8022 6.10788 12.7821C6.74624 12.7944 7.37842 12.6665 7.95067 12.4091C8.18523 12.3334 8.39163 12.1993 8.54629 12.022C8.70095 11.8448 8.79763 11.6316 8.82528 11.4068C8.85293 11.182 8.81043 10.9547 8.70265 10.7508C8.59487 10.5469 8.42615 10.3747 8.21576 10.2538C7.74813 9.93515 7.2483 9.65752 6.723 9.42463C5.84898 9.04444 5.02382 8.57773 4.26251 8.03298C3.38812 7.3885 2.82502 6.45934 2.69307 5.44326C2.56112 4.42719 2.87074 3.40444 3.55603 2.59268C4.505 1.40661 5.91025 0.588369 7.49255 0.30055C7.99828 0.183604 8.52204 0.141505 9.03678 0.0666602C9.11399 0.0549657 9.18735 0.0304077 9.26327 0.0128659L10.9568 0Z" fill="#0052CC"/>
</svg>
