<svg width="36" height="21" viewBox="0 0 36 21" fill="none" xmlns="http://www.w3.org/2000/svg">
<path d="M33.6478 8.6738V5.93405H2.07671V8.6738H33.6478ZM33.6478 10.5H2.07671V17.3485C2.07671 17.8328 2.29128 18.2973 2.67324 18.6398C3.05519 18.9823 3.57324 19.1747 4.1134 19.1747H31.6101C32.1503 19.1747 32.6683 18.9823 33.0503 18.6398C33.4322 18.2973 33.6468 17.8328 33.6468 17.3485L33.6478 10.5ZM33.6478 4.10784V3.65152C33.6478 3.16718 33.4332 2.70267 33.0513 2.36019C32.6693 2.01771 32.1513 1.82531 31.6111 1.82531H4.1134C3.57324 1.82531 3.05519 2.01771 2.67324 2.36019C2.29128 2.70267 2.07671 3.16718 2.07671 3.65152V4.10784H33.6478ZM4.1134 4.31852e-07H31.6101C32.145 -0.0002328 32.6748 0.0940077 33.1691 0.277343C33.6634 0.460678 34.1126 0.72952 34.491 1.06851C34.8694 1.4075 35.1697 1.81001 35.3746 2.25305C35.5796 2.69609 35.6852 3.17099 35.6855 3.65063V17.3476C35.6855 18.3163 35.2563 19.2453 34.4924 19.9302C33.7285 20.6152 32.6924 21 31.6121 21H4.1134C3.03342 20.9998 1.99773 20.615 1.23407 19.9302C0.470409 19.2455 0.0412781 18.3168 0.0410156 17.3485V3.65063C0.0415405 2.68241 0.4708 1.754 1.23443 1.06945C1.99807 0.384898 3.03359 0.000235664 4.1134 4.31852e-07ZM5.64116 17.8066C5.50476 17.8104 5.36888 17.7896 5.24161 17.7454C5.11434 17.7013 4.99828 17.6346 4.90029 17.5494C4.8023 17.4643 4.72438 17.3623 4.67118 17.2497C4.61797 17.137 4.59056 17.0158 4.59056 16.8935C4.59056 16.7711 4.61797 16.65 4.67118 16.5373C4.72438 16.4246 4.8023 16.3227 4.90029 16.2375C4.99828 16.1524 5.11434 16.0857 5.24161 16.0415C5.36888 15.9974 5.50476 15.9766 5.64116 15.9804H10.7344C10.9989 15.9878 11.2499 16.0872 11.4342 16.2577C11.6184 16.4281 11.7214 16.6561 11.7214 16.8935C11.7214 17.1308 11.6184 17.3589 11.4342 17.5293C11.2499 17.6997 10.9989 17.7992 10.7344 17.8066H5.64116ZM14.8067 17.8066C14.5421 17.7992 14.2912 17.6997 14.1069 17.5293C13.9227 17.3589 13.8196 17.1308 13.8196 16.8935C13.8196 16.6561 13.9227 16.4281 14.1069 16.2577C14.2912 16.0872 14.5421 15.9878 14.8067 15.9804H19.8989C20.0353 15.9766 20.1712 15.9974 20.2985 16.0415C20.4257 16.0857 20.5418 16.1524 20.6398 16.2375C20.7378 16.3227 20.8157 16.4246 20.8689 16.5373C20.9221 16.65 20.9495 16.7711 20.9495 16.8935C20.9495 17.0158 20.9221 17.137 20.8689 17.2497C20.8157 17.3623 20.7378 17.4643 20.6398 17.5494C20.5418 17.6346 20.4257 17.7013 20.2985 17.7454C20.1712 17.7896 20.0353 17.8104 19.8989 17.8066H14.8067Z" fill="#999999"/>
</svg>
