<svg width="14" height="14" viewBox="0 0 14 14" fill="none" xmlns="http://www.w3.org/2000/svg">
<path d="M13.8915 13.434H10.3817C10.2703 12.963 10.1589 12.492 10.0475 12.02C9.92274 11.465 9.92608 11.465 9.28559 11.465C7.94893 11.465 6.61226 11.465 5.27559 11.465C5.20053 11.4549 5.12403 11.4711 5.06185 11.5102C4.99967 11.5492 4.95657 11.6082 4.94142 11.675C4.73981 12.209 4.52483 12.738 4.30094 13.265C4.26975 13.339 4.15836 13.438 4.07816 13.438C2.81167 13.449 1.54629 13.445 0.251953 13.445C0.284256 13.362 0.305419 13.297 0.335494 13.234C2.19717 9.24135 4.05997 5.24835 5.92387 1.25501C6.04985 0.942441 6.28381 0.6742 6.59161 0.489443C6.8994 0.304685 7.26492 0.213087 7.63481 0.228014H10.8172L13.8915 13.434ZM9.29005 8.77101C8.90575 7.11801 8.53037 5.49801 8.15388 3.87901L8.09596 3.87101L6.1188 8.77101H9.29005Z" fill="#0052CC"/>
</svg>
