<svg width="39" height="34" viewBox="0 0 39 34" fill="none" xmlns="http://www.w3.org/2000/svg">
<path d="M18.1274 34C13.2208 33.716 8.62947 31.7281 5.32447 28.4567C2.01946 25.1852 0.259931 20.8868 0.418002 16.4705C0.576072 12.0542 2.63935 7.86623 6.17147 4.79244C9.70358 1.71864 14.4276 0 19.3443 0C24.2611 0 28.9851 1.71864 32.5172 4.79244C36.0493 7.86623 38.1126 12.0542 38.2706 16.4705C38.4287 20.8868 36.6692 25.1852 33.3642 28.4567C30.0592 31.7281 25.4678 33.716 20.5613 34V20.0575C21.3091 19.8017 21.9336 19.3185 22.3261 18.6918C22.7186 18.0652 22.8543 17.3347 22.7096 16.6275C22.565 15.9202 22.149 15.2809 21.5342 14.8207C20.9194 14.3604 20.1445 14.1084 19.3443 14.1084C18.5441 14.1084 17.7693 14.3604 17.1544 14.8207C16.5396 15.2809 16.1237 15.9202 15.979 16.6275C15.8343 17.3347 15.97 18.0652 16.3625 18.6918C16.755 19.3185 17.3795 19.8017 18.1274 20.0575" fill="#1166DD"/>
</svg>
