<svg width="18" height="18" viewBox="0 0 18 18" fill="none" xmlns="http://www.w3.org/2000/svg">
<path d="M0.75 16.5H17.25M14.835 16.5075V13.1625M1.575 16.5V4.5225C1.575 3.015 2.325 2.2575 3.8175 2.2575H8.49C9.9825 2.2575 10.725 3.015 10.725 4.5225V16.5M4.35 6.1875H8.0625M4.35 9H8.0625M6.1875 16.5V13.6875M14.85 8.1675C13.935 8.1675 13.2 8.9025 13.2 9.8175V11.52C13.2 12.435 13.935 13.17 14.85 13.17C15.765 13.17 16.5 12.435 16.5 11.52V9.8175C16.5 8.9025 15.765 8.1675 14.85 8.1675Z" stroke="#777777" stroke-width="1.5" stroke-miterlimit="10" stroke-linecap="round" stroke-linejoin="round"/>
</svg>
