<svg width="22" height="17" viewBox="0 0 22 17" fill="none" xmlns="http://www.w3.org/2000/svg">
<path d="M19.6493 0H2.16934C1.63506 0.00158144 1.1231 0.214457 0.745209 0.59216C0.367319 0.969862 0.15419 1.48172 0.152344 2.016V14.116C0.153135 14.651 0.365798 15.1639 0.743802 15.5424C1.12181 15.921 1.63437 16.1344 2.16934 16.136H19.6493C20.1843 16.1344 20.6969 15.921 21.0749 15.5424C21.4529 15.1639 21.6656 14.651 21.6663 14.116V2.016C21.6645 1.48172 21.4514 0.969862 21.0735 0.59216C20.6956 0.214457 20.1836 0.00158144 19.6493 0ZM2.16934 1.345H19.6493C19.8268 1.34733 19.9964 1.41888 20.1219 1.5444C20.2475 1.66992 20.319 1.8395 20.3213 2.017V4.034H1.49634V2.016C1.49867 1.8385 1.57022 1.66892 1.69575 1.5434C1.82127 1.41788 1.99084 1.34633 2.16834 1.344L2.16934 1.345ZM19.6493 14.792H2.16934C1.99184 14.7897 1.82227 14.7181 1.69675 14.5926C1.57122 14.4671 1.49967 14.2975 1.49734 14.12V8.068H20.3213V14.116C20.319 14.2935 20.2475 14.4631 20.1219 14.5886C19.9964 14.7141 19.8268 14.7857 19.6493 14.788V14.792ZM2.84134 10.757H4.18134V13.446H2.84134V10.757ZM5.53034 10.757H6.87534V13.446H5.53034V10.757ZM8.21934 10.757H9.56434V13.446H8.22034L8.21934 10.757Z" fill="#999999"/>
</svg>
