<svg width="19" height="27" viewBox="0 0 19 27" fill="none" xmlns="http://www.w3.org/2000/svg">
<path fill-rule="evenodd" clip-rule="evenodd" d="M7.90102 7.74978C7.90102 6.63478 8.81602 6.20578 10.332 6.20578C12.806 6.25743 15.234 6.88395 17.424 8.03578V1.31578C15.1667 0.424905 12.7587 -0.0219349 10.332 -0.000221591C4.52702 -0.000221591 0.666016 3.03078 0.666016 8.09278C0.666016 15.9858 11.533 14.7278 11.533 18.1308C11.533 19.4458 10.389 19.8748 8.78802 19.8748C6.04395 19.725 3.37183 18.9419 0.981014 17.5868V24.3928C3.44605 25.4594 6.10213 26.0139 8.78802 26.0228C14.736 26.0228 18.826 23.0768 18.826 17.9578C18.797 9.43678 7.90102 10.9528 7.90102 7.74978Z" fill="#635BFF"/>
</svg>
