<svg width="18" height="18" viewBox="0 0 18 18" fill="none" xmlns="http://www.w3.org/2000/svg">
<path d="M12.3075 2.99957C13.7625 2.99957 14.9325 4.17707 14.9325 5.62457C14.9325 7.04207 13.8075 8.19706 12.405 8.24956C12.3403 8.24206 12.2748 8.24206 12.21 8.24956M13.755 14.9996C14.295 14.8871 14.805 14.6696 15.225 14.3471C16.395 13.4696 16.395 12.0221 15.225 11.1446C14.8125 10.8296 14.31 10.6196 13.7775 10.4996M6.87004 8.15206C6.79504 8.14456 6.70504 8.14456 6.62254 8.15206C5.76169 8.12284 4.94602 7.75969 4.34826 7.13953C3.7505 6.51938 3.41759 5.69091 3.42004 4.82957C3.42004 2.99207 4.90504 1.49957 6.75004 1.49957C7.63222 1.48365 8.48458 1.81883 9.11963 2.43137C9.75467 3.04392 10.1204 3.88364 10.1363 4.76582C10.1522 5.64799 9.81702 6.50036 9.20448 7.1354C8.59194 7.77045 7.75222 8.13615 6.87004 8.15206ZM3.12004 10.9196C1.30504 12.1346 1.30504 14.1146 3.12004 15.3221C5.18254 16.7021 8.56504 16.7021 10.6275 15.3221C12.4425 14.1071 12.4425 12.1271 10.6275 10.9196C8.57254 9.54707 5.19004 9.54707 3.12004 10.9196Z" stroke="#777777" stroke-width="1.5" stroke-linecap="round" stroke-linejoin="round"/>
</svg>
