<svg width="29" height="29" viewBox="0 0 29 29" fill="none" xmlns="http://www.w3.org/2000/svg">
<path d="M14.5237 3.5166C10.5241 3.5166 7.27372 6.76702 7.27372 10.7666V14.2587C7.27372 14.9958 6.95956 16.1195 6.58497 16.7478L5.19539 19.0558C4.33747 20.4816 4.92956 22.0645 6.50039 22.5962C11.7083 24.3362 17.3271 24.3362 22.535 22.5962C23.9971 22.1128 24.6375 20.3849 23.84 19.0558L22.4504 16.7478C22.0879 16.1195 21.7737 14.9958 21.7737 14.2587V10.7666C21.7737 6.7791 18.5112 3.5166 14.5237 3.5166Z" stroke="#999999" stroke-width="1.5" stroke-miterlimit="10" stroke-linecap="round"/>
<path d="M16.7599 3.86625C15.2987 3.45009 13.7503 3.45009 12.2891 3.86625C12.6395 2.97208 13.5095 2.34375 14.5245 2.34375C15.5395 2.34375 16.4095 2.97208 16.7599 3.86625Z" stroke="#999999" stroke-width="1.5" stroke-miterlimit="10" stroke-linecap="round" stroke-linejoin="round"/>
<path d="M18.1494 23.0312C18.1494 25.025 16.5182 26.6563 14.5244 26.6563C13.5336 26.6563 12.6152 26.2454 11.9627 25.5929C11.2839 24.913 10.9016 23.9921 10.8994 23.0312" stroke="#999999" stroke-width="1.5" stroke-miterlimit="10"/>
</svg>
