<svg width="29" height="28" viewBox="0 0 29 28" fill="none" xmlns="http://www.w3.org/2000/svg">
<path d="M27.1875 24.5C27.1875 24.5 29 24.5 29 22.75C29 21 27.1875 15.75 19.9375 15.75C12.6875 15.75 10.875 21 10.875 22.75C10.875 24.5 12.6875 24.5 12.6875 24.5H27.1875ZM12.7274 22.75C12.714 22.7482 12.7007 22.7459 12.6875 22.743C12.6893 22.281 12.9902 20.9405 14.065 19.733C15.0655 18.6007 16.8236 17.5 19.9375 17.5C23.0496 17.5 24.8077 18.6025 25.81 19.733C26.8848 20.9405 27.1839 22.2828 27.1875 22.743L27.173 22.7465C27.1646 22.7479 27.1561 22.749 27.1476 22.75H12.7274ZM19.9375 12.25C20.8989 12.25 21.8209 11.8813 22.5008 11.2249C23.1806 10.5685 23.5625 9.67826 23.5625 8.75C23.5625 7.82174 23.1806 6.9315 22.5008 6.27513C21.8209 5.61875 20.8989 5.25 19.9375 5.25C18.9761 5.25 18.0541 5.61875 17.3742 6.27513C16.6944 6.9315 16.3125 7.82174 16.3125 8.75C16.3125 9.67826 16.6944 10.5685 17.3742 11.2249C18.0541 11.8813 18.9761 12.25 19.9375 12.25ZM25.375 8.75C25.375 9.43944 25.2344 10.1221 24.9611 10.7591C24.6878 11.396 24.2873 11.9748 23.7824 12.4623C23.2775 12.9498 22.678 13.3365 22.0183 13.6004C21.3586 13.8642 20.6516 14 19.9375 14C19.2234 14 18.5164 13.8642 17.8567 13.6004C17.197 13.3365 16.5975 12.9498 16.0926 12.4623C15.5877 11.9748 15.1872 11.396 14.9139 10.7591C14.6406 10.1221 14.5 9.43944 14.5 8.75C14.5 7.35761 15.0729 6.02226 16.0926 5.03769C17.1123 4.05312 18.4954 3.5 19.9375 3.5C21.3796 3.5 22.7627 4.05312 23.7824 5.03769C24.8021 6.02226 25.375 7.35761 25.375 8.75ZM12.5715 16.24C11.8465 16.0196 11.0991 15.8747 10.3421 15.8077C9.91679 15.7687 9.48975 15.7494 9.0625 15.75C1.8125 15.75 0 21 0 22.75C0 23.9172 0.603563 24.5 1.8125 24.5H9.454C9.18531 23.9537 9.0513 23.3547 9.0625 22.75C9.0625 20.9825 9.74581 19.1765 11.0381 17.668C11.4786 17.1535 11.9915 16.6722 12.5715 16.24ZM8.9175 17.5C7.84478 19.0562 7.2653 20.8807 7.25 22.75H1.8125C1.8125 22.295 2.10975 20.9475 3.19 19.733C4.17781 18.62 5.89425 17.535 8.9175 17.5018V17.5ZM2.71875 9.625C2.71875 8.23261 3.29163 6.89726 4.31136 5.91269C5.33109 4.92812 6.71414 4.375 8.15625 4.375C9.59836 4.375 10.9814 4.92812 12.0011 5.91269C13.0209 6.89726 13.5938 8.23261 13.5938 9.625C13.5938 11.0174 13.0209 12.3527 12.0011 13.3373C10.9814 14.3219 9.59836 14.875 8.15625 14.875C6.71414 14.875 5.33109 14.3219 4.31136 13.3373C3.29163 12.3527 2.71875 11.0174 2.71875 9.625ZM8.15625 6.125C7.19484 6.125 6.27281 6.49375 5.59299 7.15013C4.91317 7.8065 4.53125 8.69674 4.53125 9.625C4.53125 10.5533 4.91317 11.4435 5.59299 12.0999C6.27281 12.7563 7.19484 13.125 8.15625 13.125C9.11766 13.125 10.0397 12.7563 10.7195 12.0999C11.3993 11.4435 11.7812 10.5533 11.7812 9.625C11.7812 8.69674 11.3993 7.8065 10.7195 7.15013C10.0397 6.49375 9.11766 6.125 8.15625 6.125Z" fill="#999999"/>
</svg>
