<svg width="1201" height="70" viewBox="0 0 1201 70" fill="none" xmlns="http://www.w3.org/2000/svg">
<rect width="1201" height="70" fill="white"/>
<path d="M40.8337 41.5048C40.8337 42.1006 40.3505 42.5827 39.7557 42.5827H31.0782C30.7924 42.5827 30.5182 42.4691 30.316 42.267C30.1139 42.0648 30.0003 41.7906 30.0003 41.5048C30.0003 41.2189 30.1139 40.9447 30.316 40.7426C30.5182 40.5404 30.7924 40.4268 31.0782 40.4268H39.7557C40.3516 40.4268 40.8337 40.9089 40.8337 41.5048ZM40.8337 34.9993C40.8337 35.5952 40.3505 36.0773 39.7557 36.0773H20.2449C19.959 36.0773 19.6849 35.9637 19.4827 35.7616C19.2806 35.5594 19.167 35.2852 19.167 34.9993C19.167 34.7135 19.2806 34.4393 19.4827 34.2371C19.6849 34.035 19.959 33.9214 20.2449 33.9214H39.7557C40.3516 33.9214 40.8337 34.4046 40.8337 34.9993ZM39.7557 29.5718C40.0416 29.5718 40.3158 29.4583 40.5179 29.2561C40.7201 29.054 40.8337 28.7798 40.8337 28.4939C40.8337 28.2081 40.7201 27.9339 40.5179 27.7317C40.3158 27.5296 40.0416 27.416 39.7557 27.416H26.7449C26.6034 27.416 26.4632 27.4439 26.3324 27.4981C26.2016 27.5522 26.0828 27.6316 25.9827 27.7317C25.8826 27.8318 25.8032 27.9507 25.749 28.0814C25.6949 28.2122 25.667 28.3524 25.667 28.4939C25.667 28.6355 25.6949 28.7757 25.749 28.9064C25.8032 29.0372 25.8826 29.156 25.9827 29.2561C26.0828 29.3562 26.2016 29.4356 26.3324 29.4898C26.4632 29.544 26.6034 29.5718 26.7449 29.5718H39.7557Z" fill="#5B5B5B"/>
</svg>
