<svg width="17" height="13" viewBox="0 0 17 13" fill="none" xmlns="http://www.w3.org/2000/svg">
<path d="M16.3654 1.47211L15.0214 0.0921081C14.994 0.0627647 14.9609 0.0394312 14.9241 0.0235923C14.8872 0.0077535 14.8475 -0.000243994 14.8074 0.00010812C14.7672 -0.00101562 14.7272 0.0066317 14.6902 0.0225195C14.6533 0.0384072 14.6202 0.0621542 14.5934 0.0921081L5.27137 9.47611L1.88037 6.08511C1.85245 6.05669 1.81915 6.03411 1.7824 6.0187C1.74566 6.00329 1.70622 5.99536 1.66638 5.99536C1.62653 5.99536 1.58709 6.00329 1.55035 6.0187C1.5136 6.03411 1.4803 6.05669 1.45237 6.08511L0.0933752 7.44411C0.0638741 7.47213 0.0403826 7.50587 0.0243301 7.54326C0.00827769 7.58065 0 7.62092 0 7.66161C0 7.7023 0.00827769 7.74257 0.0243301 7.77996C0.0403826 7.81735 0.0638741 7.85108 0.0933752 7.87911L4.37138 12.1571C4.60337 12.4103 4.92297 12.5658 5.26538 12.5921C5.60128 12.562 5.91543 12.4131 6.15137 12.1721H6.15937L16.3714 1.90811C16.4244 1.84752 16.4531 1.76946 16.452 1.68896C16.4509 1.60846 16.42 1.53122 16.3654 1.47211Z" fill="#288EFC"/>
</svg>
