<svg width="18" height="18" viewBox="0 0 18 18" fill="none" xmlns="http://www.w3.org/2000/svg">
<path d="M12.3075 3C13.7625 3 14.9325 4.1775 14.9325 5.625C14.9325 7.0425 13.8075 8.1975 12.405 8.25C12.3402 8.2425 12.2748 8.2425 12.21 8.25M13.755 15C14.295 14.8875 14.805 14.67 15.225 14.3475C16.395 13.47 16.395 12.0225 15.225 11.145C14.8125 10.83 14.31 10.62 13.7775 10.5M6.86998 8.1525C6.79498 8.145 6.70498 8.145 6.62248 8.1525C5.76163 8.12327 4.94596 7.76013 4.3482 7.13997C3.75044 6.51981 3.41753 5.69134 3.41998 4.83C3.41998 2.9925 4.90498 1.5 6.74998 1.5C7.63215 1.48409 8.48452 1.81927 9.11957 2.43181C9.75461 3.04435 10.1203 3.88407 10.1362 4.76625C10.1521 5.64843 9.81696 6.50079 9.20442 7.13584C8.59188 7.77088 7.75215 8.13659 6.86998 8.1525ZM3.11998 10.92C1.30498 12.135 1.30498 14.115 3.11998 15.3225C5.18248 16.7025 8.56498 16.7025 10.6275 15.3225C12.4425 14.1075 12.4425 12.1275 10.6275 10.92C8.57248 9.5475 5.18998 9.5475 3.11998 10.92Z" stroke="#777777" stroke-width="1.5" stroke-linecap="round" stroke-linejoin="round"/>
</svg>
