<svg width="37" height="36" viewBox="0 0 37 36" fill="none" xmlns="http://www.w3.org/2000/svg">
<path d="M24.086 24.6291C22.7991 25.8109 21.1959 26.5925 19.472 26.8786C17.7482 27.1646 15.9783 26.9427 14.3785 26.24C12.7788 25.5372 11.4182 24.384 10.4631 22.9211C9.50801 21.4582 8.99961 19.749 9 18.0021H10.4997C10.4996 19.512 10.9556 20.9868 11.808 22.2334C12.6604 23.4799 13.8695 24.44 15.2769 24.988C16.6843 25.5361 18.2245 25.6464 19.6957 25.3047C21.1669 24.9629 22.5006 24.185 23.5221 23.0728H21.3429C21.1441 23.0728 20.9533 22.9938 20.8127 22.8532C20.6721 22.7126 20.5931 22.5219 20.5931 22.3231C20.5931 22.1243 20.6721 21.9336 20.8127 21.793C20.9533 21.6524 21.1441 21.5734 21.3429 21.5734H24.8359C25.0347 21.5734 25.2255 21.6524 25.3661 21.793C25.5067 21.9336 25.5857 22.1243 25.5857 22.3231V25.812C25.5857 26.0108 25.5067 26.2015 25.3661 26.3421C25.2255 26.4827 25.0347 26.5617 24.8359 26.5617C24.637 26.5617 24.4462 26.4827 24.3056 26.3421C24.165 26.2015 24.086 26.0108 24.086 25.812V24.6276V24.6291ZM12.4749 12.9329H14.6541C14.8529 12.9329 15.0437 13.0119 15.1843 13.1524C15.3249 13.293 15.4039 13.4837 15.4039 13.6825C15.4039 13.8814 15.3249 14.072 15.1843 14.2126C15.0437 14.3532 14.8529 14.4322 14.6541 14.4322H11.1596C10.9608 14.4322 10.77 14.3532 10.6294 14.2126C10.4888 14.072 10.4098 13.8814 10.4098 13.6825V10.1906C10.4098 9.9918 10.4888 9.80112 10.6294 9.66053C10.77 9.51994 10.9608 9.44096 11.1596 9.44096C11.3585 9.44096 11.5493 9.51994 11.6899 9.66053C11.8305 9.80112 11.9095 9.9918 11.9095 10.1906V11.3751C13.1962 10.1918 14.7999 9.40891 16.5245 9.12202C18.249 8.83513 20.0199 9.05669 21.6205 9.75963C23.2212 10.4626 24.5824 11.6164 25.5377 13.0802C26.4931 14.544 27.0012 16.2543 27 18.0021H25.5002C25.5004 16.4919 25.0443 15.0169 24.1917 13.7703C23.3391 12.5236 22.1298 11.5635 20.7221 11.0156C19.3144 10.4677 17.7741 10.3576 16.3027 10.6997C14.8314 11.0418 13.4978 11.8202 12.4764 12.9329H12.4749Z" fill="#222222" fill-opacity="0.7"/>
<rect x="0.5" y="0.5" width="36" height="35" rx="3.5" stroke="#222222" stroke-opacity="0.7"/>
</svg>
